<svg width="20" height="19" viewBox="0 0 20 19" fill="none" xmlns="http://www.w3.org/2000/svg">
<path d="M8.77345 0.578819C9.13185 -0.192913 10.229 -0.192914 10.5874 0.578818L12.7042 5.13688C12.8499 5.45063 13.1474 5.66679 13.4908 5.70841L18.4799 6.31308C19.3246 6.41546 19.6637 7.4589 19.0405 8.03823L15.3596 11.4599C15.1062 11.6955 14.9926 12.0452 15.0591 12.3847L16.0258 17.3165C16.1894 18.1515 15.3018 18.7964 14.5583 18.3827L10.1666 15.9393C9.8643 15.7712 9.49654 15.7712 9.19424 15.9393L4.80257 18.3827C4.059 18.7964 3.1714 18.1515 3.33506 17.3165L4.3017 12.3847C4.36824 12.0452 4.2546 11.6955 4.00123 11.4599L0.320381 8.03824C-0.302829 7.4589 0.0362052 6.41546 0.880917 6.31308L5.87001 5.70841C6.21344 5.66679 6.51095 5.45063 6.65666 5.13688L8.77345 0.578819Z" fill="#D83222"/>
</svg>
