<?xml version="1.0" encoding="utf-8"?>
<!-- Generator: Adobe Illustrator 23.0.1, SVG Export Plug-In . SVG Version: 6.00 Build 0)  -->
<svg version="1.1" id="Capa_1" xmlns="http://www.w3.org/2000/svg" xmlns:xlink="http://www.w3.org/1999/xlink" x="0px" y="0px"
	 viewBox="0 0 150 150" style="enable-background:new 0 0 150 150;" xml:space="preserve">
<style type="text/css">
	.st0{fill:#7C1A0F;}
	.st1{fill:none;stroke:#FBFAE9;stroke-width:2.5;stroke-miterlimit:10;}
</style>
<circle class="st0" cx="75" cy="75" r="75"/>
<path class="st1" d="M72,33.9c4.6-0.4,9.2,0.2,13.6,1.9c4.3,1.7,8.2,4.3,11.3,7.8c3.1,3.4,5.3,7.5,6.6,12c1.2,4.5,1.4,9.1,0.5,13.7
	c-2.4,11.8-11.1,25.1-18.3,34.6c-2.5,3.6-5.3,7-8.3,10.2c-1,1-1.8,1.6-3.4,1.1c-0.9-0.3-4.2-4.4-5.1-5.5
	c-8.8-10.6-23.3-31.6-23.6-45.5C44.9,48.9,56.8,35.4,72,33.9z M73.3,48.5c-19.2,2.1-16.7,32,4,29.5C95.4,75.9,93,46.4,73.3,48.5
	L73.3,48.5z"/>
</svg>
