<?xml version="1.0" encoding="utf-8"?>
<!-- Generator: Adobe Illustrator 23.0.1, SVG Export Plug-In . SVG Version: 6.00 Build 0)  -->
<svg version="1.1" id="Capa_1" xmlns="http://www.w3.org/2000/svg" xmlns:xlink="http://www.w3.org/1999/xlink" x="0px" y="0px"
	 viewBox="0 0 150 150" style="enable-background:new 0 0 150 150;" xml:space="preserve">
<style type="text/css">
	.st0{fill:#568A35;}
	.st1{fill:none;stroke:#FBFAE9;stroke-width:2.5;stroke-miterlimit:10;}
</style>
<circle class="st0" cx="75" cy="75" r="75"/>
<g>
	<path class="st1" d="M84.6,80.1c3.6-0.2,7.1-0.3,10.7-0.1c4.9,0.3,9.6,2.2,13.3,5.4c3.7,3.2,6.3,7.5,7.4,12.4
		c0.7,3.6,1.4,8.3-3.5,8.5H67.7c-4.5-0.6-4-4.6-3.4-8c0.9-4.8,3.4-9.2,7.1-12.5C75.1,82.6,79.7,80.6,84.6,80.1L84.6,80.1z"/>
	<path class="st1" d="M53.8,42.8c2.6,0,5.1,0.7,7.4,2c2.3,1.3,4.1,3.1,5.5,5.3c1.3,2.2,2.1,4.8,2.1,7.3c0.1,2.6-0.5,5.2-1.8,7.4
		c-1.2,2.3-3,4.2-5.2,5.6c-2.2,1.4-4.7,2.2-7.3,2.3c-2.6,0.1-5.2-0.4-7.5-1.6c-2.3-1.2-4.3-2.9-5.7-5.1c-1.5-2.3-2.3-4.9-2.4-7.6
		c-0.1-2.7,0.5-5.4,1.8-7.8c1.3-2.4,3.2-4.4,5.5-5.8C48.5,43.5,51.1,42.8,53.8,42.8z"/>
	<path class="st1" d="M90.1,42.8c11.8-0.2,19.3,13.2,12.8,23.2c-1.4,2.2-3.4,3.9-5.7,5.1c-2.3,1.2-4.9,1.8-7.4,1.7
		c-2.6-0.1-5.1-0.9-7.3-2.2s-4-3.3-5.3-5.5c-1.3-2.3-1.9-4.8-1.9-7.4c0-2.6,0.7-5.1,2-7.4c1.3-2.2,3.1-4.1,5.4-5.4
		C85,43.5,87.5,42.8,90.1,42.8z"/>
	<path class="st1" d="M36,106.4c-4.3-0.6-3.4-6.6-2.8-9.6c0.8-3.8,2.7-7.4,5.4-10.2c2.7-2.8,6.1-4.9,9.9-5.9c3.9-1,11.4-1,15.2,0.5
		c0.2,0.1,0.3-0.1,0.3,0.3c-0.1,0.4-2.7,3.3-3.1,3.9c-4.1,5.8-6.5,13.9-4.8,21H36z"/>
</g>
</svg>
