<svg width="87" height="67" viewBox="0 0 87 67" fill="none" xmlns="http://www.w3.org/2000/svg">
<g clip-path="url(#clip0_612_587)">
<path d="M53.14 38.64C56.7022 38.405 60.2754 38.385 63.84 38.58C68.7576 38.9018 73.4382 40.8097 77.1795 44.0173C80.9208 47.2249 83.521 51.5592 84.59 56.37C85.33 59.92 85.96 64.63 81.07 64.91H36.22C31.7 64.36 32.22 60.34 32.85 56.91C33.788 52.0748 36.2759 47.6768 39.937 44.382C43.5981 41.0872 48.233 39.075 53.14 38.65V38.64Z" stroke="#FBFAE9" stroke-width="3" stroke-miterlimit="10"/>
<path d="M22.33 1.25999C24.9218 1.26153 27.4689 1.93459 29.7231 3.21354C31.9773 4.49249 33.8617 6.3337 35.1925 8.55768C36.5234 10.7817 37.2553 13.3125 37.3168 15.9035C37.3784 18.4946 36.7676 21.0574 35.544 23.3421C34.3203 25.6268 32.5255 27.5554 30.3346 28.94C28.1437 30.3246 25.6314 31.1179 23.0427 31.2426C20.4539 31.3673 17.877 30.8191 15.5632 29.6514C13.2494 28.4838 11.2776 26.7365 9.84 24.58C8.36869 22.3132 7.53268 19.6931 7.4192 16.993C7.30573 14.293 7.91894 11.612 9.19486 9.22969C10.4708 6.84743 12.3626 4.85124 14.6731 3.44941C16.9835 2.04758 19.6277 1.29147 22.33 1.25999Z" stroke="#FBFAE9" stroke-width="3" stroke-miterlimit="10"/>
<path d="M58.59 1.25C70.43 1.05 77.87 14.48 71.41 24.46C69.9941 26.6242 68.0426 28.3855 65.7451 29.573C63.4475 30.7605 60.882 31.3337 58.2976 31.2371C55.7131 31.1405 53.1976 30.3774 50.9951 29.0217C48.7926 27.666 46.9781 25.7639 45.7276 23.5C44.4772 21.2362 43.8333 18.6875 43.8586 16.1013C43.8838 13.5152 44.5772 10.9795 45.8716 8.74048C47.1659 6.50143 49.0172 4.63508 51.2457 3.32262C53.4742 2.01015 56.0042 1.29618 58.59 1.25Z" stroke="#FBFAE9" stroke-width="3" stroke-miterlimit="10"/>
<path d="M4.54001 64.88C0.250005 64.28 1.17001 58.25 1.75001 55.24C2.55819 51.4147 4.4114 47.8884 7.10361 45.0532C9.79583 42.218 13.2216 40.1849 17 39.18C20.88 38.18 28.44 38.18 32.15 39.66C32.33 39.73 32.48 39.56 32.42 39.96C32.36 40.36 29.74 43.26 29.3 43.88C25.2 49.72 22.75 57.79 24.45 64.88H4.54001Z" stroke="#FBFAE9" stroke-width="3" stroke-miterlimit="10"/>
</g>
<defs>
<clipPath id="clip0_612_587">
<rect width="86.35" height="66.31" fill="white"/>
</clipPath>
</defs>
</svg>
