<?xml version="1.0" encoding="utf-8"?>
<!-- Generator: Adobe Illustrator 23.0.1, SVG Export Plug-In . SVG Version: 6.00 Build 0)  -->
<svg version="1.1" id="Capa_1" xmlns="http://www.w3.org/2000/svg" xmlns:xlink="http://www.w3.org/1999/xlink" x="0px" y="0px"
	 viewBox="0 0 150 150" style="enable-background:new 0 0 150 150;" xml:space="preserve">
<style type="text/css">
	.st0{fill:#D83222;}
	.st1{fill:none;stroke:#FBFAE9;stroke-width:2.5;stroke-miterlimit:10;}
</style>
<circle class="st0" cx="75" cy="75" r="75"/>
<g>
	<path class="st1" d="M86.1,72.5c-7.9-7.4-4-30.8,0.2-39.8c2.3-4.9,10.8-17.4,14.3-6.8l0.1,96.2c0.1,4-3.3,7.7-7,4.8
		c-2.3-1.8-2.8-6.8-3.1-9.6c-1.4-13.1,0.4-26.9,0.8-40.1C91.3,74.7,87.9,74.2,86.1,72.5z"/>
	<path class="st1" d="M56,23.3c0.4-1.5,3.1-2.1,3.5,0c0.5,7.5-0.6,15.7,0,23.1c0.3,2.9,1.9,3.9,3.5,1.3c0.5-3.5-0.9-23.9,0.5-25.4
		c0.4-0.3,0.9-0.4,1.4-0.4c0.5,0.1,1,0.3,1.3,0.7c1.3,4.4-1.1,23.1,0.6,25.9c0.6,1,2.2,0.7,2.9-0.1c1.2-4.3-1.1-23.2,0.6-25.9
		c0.2-0.3,0.5-0.5,0.9-0.6c0.3-0.1,0.7-0.1,1-0.1c2.4,0.6,1.5,9.4,1.6,11.5c0.3,6.5,2.1,18.1-1.9,23.3c-1.5,2-4.9,3.6-5.8,5.1
		c-0.8,1.3-1.2,4.1-1.4,5.6c-2,16.5,3.1,35.4,3.5,51.8c0.1,3.3-0.1,6.4-3.4,8c-1.1,0.6-2.3,0.9-3.5,0.9c-1.2,0-2.4-0.3-3.5-0.9
		c-1.1-0.6-2-1.4-2.6-2.5c-0.6-1-1-2.2-1.1-3.4c1-11.3,2.7-22.6,3.5-33.9c0.4-5.4,1.4-21-0.9-25.2c-1-1.8-3.8-2.9-5.4-4.6
		c-4.6-5.2-3-10.7-2.8-16.8c0.1-5.4-0.3-11.7,0.5-17c0.3-2.5,3.1-2.7,3.5,0c0.9,6.9-1.1,16.3,0,23.1c0.5,3.1,3.4,2.6,3.4,1.3V23.3z"
		/>
</g>
</svg>
