<svg width="62" height="85" viewBox="0 0 62 85" fill="none" xmlns="http://www.w3.org/2000/svg">
<path d="M28 1.39C32.6032 0.951435 37.2451 1.59704 41.5539 3.2751C45.8627 4.95316 49.7186 7.61704 52.8127 11.0533C55.9068 14.4896 58.1531 18.6028 59.3717 23.0633C60.5903 27.5239 60.7472 32.2079 59.83 36.74C57.44 48.55 48.75 61.83 41.57 71.39C39.0419 74.9763 36.2863 78.3967 33.32 81.63C32.32 82.63 31.53 83.26 29.95 82.76C29.03 82.47 25.74 78.36 24.88 77.31C16.07 66.69 1.62001 45.72 1.26001 31.76C0.890006 16.44 12.76 2.87 28 1.39ZM29.27 16.05C10.11 18.16 12.58 48.05 33.27 45.57C51.38 43.45 49 13.87 29.26 16.05H29.27Z" stroke="#FBFAE9" stroke-width="3" stroke-miterlimit="10"/>
</svg>
