<svg width="56" height="109" viewBox="0 0 56 109" fill="none" xmlns="http://www.w3.org/2000/svg">
<g clip-path="url(#clip0_609_573)">
<path d="M39.12 52C31.25 44.55 35.12 21.2 39.33 12.2C41.62 7.3 50.17 -5.15 53.68 5.45L53.8 101.69C53.94 105.69 50.49 109.36 46.8 106.45C44.53 104.64 44.04 99.66 43.74 96.87C42.32 83.79 44.1 69.94 44.59 56.81C44.27 54.22 40.89 53.72 39.12 52Z" stroke="#FBFAE9" stroke-width="3" stroke-miterlimit="10"/>
<path d="M9 2.78999C9.42 1.29999 12.09 0.689992 12.49 2.78999C12.98 10.27 11.84 18.53 12.49 25.91C12.74 28.81 14.39 29.81 16 27.2C16.49 23.74 15.13 3.25999 16.54 1.80999C16.9509 1.50549 17.4629 1.37 17.9707 1.43138C18.4785 1.49276 18.9434 1.74634 19.27 2.13999C20.55 6.49999 18.16 25.27 19.9 28C20.51 29 22.14 28.67 22.78 27.86C24 23.54 21.67 4.67999 23.39 1.99999C23.6289 1.74009 23.9281 1.54302 24.2612 1.42617C24.5943 1.30931 24.9511 1.27628 25.3 1.32999C27.66 1.89999 26.8 10.72 26.89 12.84C27.18 19.31 29 30.91 25 36.15C23.5 38.15 20.09 39.77 19.16 41.21C18.36 42.46 17.99 45.29 17.8 46.82C15.8 63.28 20.86 82.19 21.3 98.66C21.39 101.92 21.18 105.06 17.94 106.66C16.8821 107.262 15.6872 107.583 14.4699 107.591C13.2526 107.599 12.0537 107.294 10.9878 106.706C9.92202 106.118 9.02504 105.266 8.38282 104.232C7.74059 103.198 7.37464 102.016 7.32 100.8C8.32 89.5 10.05 78.18 10.78 66.86C11.13 61.44 12.21 45.86 9.85 41.64C8.87 39.88 6 38.73 4.46 37C-0.14 31.78 1.51 26.3 1.65 20.24C1.77 14.85 1.37 8.52999 2.11 3.23999C2.46 0.709992 5.22 0.489992 5.58 3.19999C6.48 10.13 4.52 19.49 5.58 26.3C6.07 29.44 9 28.88 9 27.63V2.78999Z" stroke="#FBFAE9" stroke-width="3" stroke-miterlimit="10"/>
</g>
<defs>
<clipPath id="clip0_609_573">
<rect width="55.06" height="108.78" fill="white"/>
</clipPath>
</defs>
</svg>
