<?xml version="1.0" encoding="utf-8"?>
<!-- Generator: Adobe Illustrator 23.0.1, SVG Export Plug-In . SVG Version: 6.00 Build 0)  -->
<svg version="1.1" id="Capa_1" xmlns="http://www.w3.org/2000/svg" xmlns:xlink="http://www.w3.org/1999/xlink" x="0px" y="0px"
	 viewBox="0 0 38 38" style="enable-background:new 0 0 38 38;" xml:space="preserve">
<style type="text/css">
	.st0{fill:#274635;}
</style>
<path class="st0" d="M22.7,19L37.2,4.4c1-1,1-2.7,0-3.7c-1-1-2.7-1-3.7,0L19,15.3L4.4,0.8c-1-1-2.7-1-3.7,0c-1,1-1,2.7,0,3.7
	L15.3,19L0.8,33.6c-1,1-1,2.7,0,3.7C1.3,37.7,1.9,38,2.6,38s1.3-0.3,1.8-0.8L19,22.7l14.6,14.6c0.5,0.5,1.2,0.8,1.8,0.8
	c0.7,0,1.3-0.3,1.8-0.8c1-1,1-2.7,0-3.7L22.7,19z"/>
</svg>
