<svg width="41" height="41" viewBox="0 0 41 41" fill="none" xmlns="http://www.w3.org/2000/svg">
<path d="M24.1745 38.4191V25.2902H27.7551L28.501 20.0684H23.1301V15.6673C23.1301 15.0675 24.4042 13.8024 24.995 13.8024H29.1724L29.3962 13.5786V9.1774C25.3322 8.59853 20.2567 8.20765 18.4335 12.761C18.3082 13.0743 17.9084 14.2291 17.9084 14.4737V19.8447L17.6846 20.0684H13.731V25.2902H17.9084V38.4191C10.9083 37.7209 4.74364 32.2425 2.83696 25.5169C-0.892852 12.3701 9.58642 -0.0904372 23.1838 1.73866C35.2982 3.36784 42.2596 16.455 37.4794 27.6295C35.2147 32.9229 29.8915 37.4643 24.1745 38.4191Z" stroke="black" stroke-width="3"/>
</svg>
