<svg width="31" height="31" viewBox="0 0 31 31" fill="none" xmlns="http://www.w3.org/2000/svg">
<path d="M18.222 30.3931V19.5675H21.1744L21.7895 15.2619H17.3608V11.6328C17.3608 11.1383 18.4114 10.0951 18.8986 10.0951H22.3431L22.5276 9.91059V6.28156C19.1766 5.80424 14.9915 5.48194 13.4882 9.23645C13.3849 9.49479 13.0552 10.4469 13.0552 10.6487V15.0773L12.8707 15.2619H9.6107V19.5675H13.0552V30.3931C7.2832 29.8174 2.20009 25.3002 0.627917 19.7545C-2.44753 8.91414 6.19326 -1.36033 17.4051 0.147873C27.3942 1.49123 33.1342 12.2824 29.1927 21.4964C27.3253 25.8611 22.936 29.6058 18.222 30.3931Z" fill="#D83222"/>
</svg>
