<svg width="29" height="29" viewBox="0 0 29 29" fill="none" xmlns="http://www.w3.org/2000/svg">
<path d="M6.78683 0.157879C11.636 -0.295373 17.0405 0.398589 21.9485 0.134832C32.1484 0.992682 27.7624 15.1639 28.7041 21.8244C27.9261 32.18 13.7318 27.7602 7.01457 28.7051C3.23759 28.4208 0.42277 25.6066 0.138729 21.8244C-0.245111 16.7233 0.287147 10.9642 0.307618 5.83249C1.02924 2.6879 3.56002 0.457486 6.78683 0.157879ZM21.5928 5.35619C20.2289 5.6686 20.257 8.09107 21.9638 8.14485C24.1747 8.21399 23.837 4.84148 21.5928 5.35619ZM13.3249 7.36894C4.68083 8.4086 5.59181 22.5106 15.4079 21.4761C24.1952 20.5491 23.2894 6.17307 13.3249 7.36894Z" fill="#274636"/>
<path d="M13.724 10.1706C19.561 9.32304 20.4694 18.0193 15.0086 18.6698C9.54787 19.3202 8.41427 10.9414 13.724 10.1706Z" fill="#274636"/>
</svg>
