<svg width="39" height="38" viewBox="0 0 39 38" fill="none" xmlns="http://www.w3.org/2000/svg">
<path d="M10.2271 1.68171C16.108 1.13202 22.6623 1.97363 28.6146 1.65375C40.9847 2.69413 35.6655 19.8805 36.8076 27.9581C35.8641 40.5171 18.6497 35.1569 10.5033 36.3028C5.92266 35.9581 2.50894 32.5451 2.16446 27.9581C1.69895 21.7718 2.34446 14.7873 2.36929 8.56369C3.24444 4.75003 6.31369 2.04506 10.2271 1.68171ZM28.1833 7.98605C26.5292 8.36494 26.5633 11.3028 28.6333 11.368C31.3146 11.4519 30.9049 7.36183 28.1833 7.98605ZM18.1562 10.427C7.67297 11.6879 8.77778 28.7904 20.6824 27.5357C31.3394 26.4115 30.2408 8.97674 18.1562 10.427Z" stroke="black" stroke-width="3"/>
</svg>
