<?xml version="1.0" encoding="utf-8"?>
<!-- Generator: Adobe Illustrator 23.0.1, SVG Export Plug-In . SVG Version: 6.00 Build 0)  -->
<svg version="1.1" id="Capa_1" xmlns="http://www.w3.org/2000/svg" xmlns:xlink="http://www.w3.org/1999/xlink" x="0px" y="0px"
	 viewBox="0 0 435 149.7" style="enable-background:new 0 0 435 149.7;" xml:space="preserve">
<style type="text/css">
	.st0{fill:#FAF9E7;}
</style>
<g>
	<path class="st0" d="M44.8,150c-1.6,0-3.2-0.1-4.7-0.2c-5.1-0.5-10.1-1.7-14.8-3.5l-0.5-0.2c-6.1-2.6-11.2-6.3-15-11
		c-3.6-4.3-6.3-9.3-7.8-14.7c-1.3-4.5-1.9-9.2-1.9-14c0-5.9,0.8-11.8,2.5-17.5c0.6-2,2.7-3.2,4.7-2.6c2,0.6,3.2,2.7,2.6,4.7
		c-1.4,5-2.2,10.2-2.2,15.4c0,4.1,0.6,8.1,1.6,11.9c1.3,4.4,3.4,8.4,6.4,11.9c3.1,3.8,7.2,6.8,12.2,8.9l0.4,0.2
		c4,1.6,8.3,2.6,12.7,3c4.9,0.4,9.9,0.1,14.7-1.1l0.1,0c5-1.3,9.7-3,14.2-5.3c0.9-0.5,2-0.5,2.9-0.2c1.8,0.6,3.6,0.9,5.6,0.9
		c4.4,0,8.6-1.5,12.1-4.4c1.1-0.9,2.3-1.9,3.4-3c0.7-0.7,1.7-1.1,2.8-1.1c1,0,2,0.5,2.7,1.2c0.4,0.5,0.8,0.9,1.3,1.3
		c4.8,4.6,10.9,7.1,17.7,7.1c1.2,0,2.5-0.1,3.7-0.2l0.6-0.1c3.3-0.6,6.5-1.5,9.6-2.7c1.1-0.4,2.3-0.3,3.3,0.3
		c1.5,0.9,3.2,1.6,4.9,2.1c2.6,0.8,5.3,1.2,8.1,1.2c3.8,0,7.6-0.6,11.3-1.7c2.9-0.9,5.8-2,8.5-3.3c1.2-0.6,2.7-0.5,3.8,0.3
		c0.8,0.5,1.6,1,2.4,1.4c4.2,2.2,9,3.4,13.8,3.4c5,0,10.1-1,15.1-2.8l0.4-0.2c0.9-0.4,1.9-0.4,2.9,0c2.1,0.9,4.3,1.3,6.5,1.3
		c4.4,0,8.6-1.5,12.1-4.4c1.1-0.9,2.3-1.9,3.4-3c0.7-0.7,1.7-1.1,2.8-1.1c1,0,2,0.5,2.7,1.2c0.4,0.5,0.8,0.9,1.3,1.3
		c4.8,4.6,10.9,7.1,17.7,7.1c1.2,0,2.5-0.1,3.7-0.2l0.6-0.1c3.3-0.6,6.5-1.5,9.6-2.7c1.1-0.4,2.3-0.3,3.3,0.3
		c1.5,0.9,3.2,1.6,4.9,2.1c2.6,0.8,5.3,1.2,8.1,1.2c3.8,0,7.6-0.6,11.3-1.7c2.1-0.6,4.2-1.4,6.3-2.3c1.3-0.5,2.7-0.4,3.8,0.5
		c2.8,2.2,6.2,3.7,10.1,4.6c2.1,0.5,4.3,0.7,6.4,0.7c0.9,0,1.8,0,2.8-0.1c3.8-0.4,7.5-1.5,11.1-3.3l0.2-0.1c1.7-0.8,3.3-1.8,5-2.8
		c1.2-0.7,2.8-0.7,4,0c2,1.3,4.2,2.3,6.5,3c6.4,2,13.1,1.8,19.5-0.1c3-0.9,5.9-2.1,8.6-3.5l0.2-0.1c1.4-0.8,2.8-1.7,4.1-2.7
		c0.7-0.5,1.5-0.8,2.3-0.8c2.2,0,4.3-0.2,6.3-0.5l0.2,0c0.3,0,0.5-0.1,0.7-0.1c5.2-1.1,10.4-2.9,15.5-5.5c5.3-2.6,10-5.9,14-9.8
		l0.7-0.7c3.3-3.7,5-8.1,5-12.8c0-4.1-1.3-8-3.8-11.3l-0.4-0.5c-3.2-3.8-7.5-5.9-12.6-6.2c-1.5-0.1-2.7-1-3.3-2.4
		c-0.3-0.8-0.7-1.7-1.2-2.5l-0.2-0.4c-2.5-4.4-5.9-7.7-10.1-9.8l-0.1-0.1c-1.6-0.8-3.3-1.4-5-1.9c-1.1-0.3-2-1.1-2.5-2.1
		c-0.5-1.1-0.4-2.3,0.1-3.3c0.1-0.1,0.1-0.2,0.2-0.3c2.3-4.6,3.4-9.5,3.4-14.6l0-0.8c-0.2-5.4-2.3-10.3-6.1-14.2l-0.3-0.3
		c-4.1-4-9.5-6.2-15.2-6.2c-0.9,0-1.9,0.1-2.8,0.2l-0.2,0c-6.2,1-12.1,3.4-17.5,7.4c-4.2,3.1-7.9,6.3-11.2,9.7
		c-3.7,3.6-7.3,7.4-10.7,11.3c-0.7,0.8-1.6,1.2-2.6,1.3c-1,0.1-2-0.3-2.8-1c-3.3-3-7.4-4.6-12-4.6c-1.3,0-2.7,0.1-4,0.4l-0.6,0.1
		c-2,0.5-3.8,1.3-5.4,2.3c-1.1,0.7-2.6,0.7-3.7,0.1c-1.2-0.6-1.9-1.8-2-3.2c-0.2-3.7-1.3-7.3-3.2-10.5l-0.2-0.3
		c-2.8-4.3-7.1-7.3-12.4-8.7c0,0-0.1,0-0.1,0c-3.8-0.9-8.1-0.8-12.2,0.3c-1.5,0.4-2.9,0.9-4.2,1.3l-0.2,0.1
		c-0.2,0.1-0.4,0.2-0.6,0.3c-5,2.2-9.7,5.1-13.9,8.7c-3.7,3.1-7.1,6.5-10.1,9.9c-5,5.6-9.9,11.4-14.4,17.4c-1.3,1.7-3.6,2-5.3,0.8
		c-0.8-0.6-1.5-1-2.2-1.4c-3.3-1.9-7-2.8-10.9-2.8c-2.4,0-4.9,0.3-7.3,1c-1,0.3-2,0.1-2.9-0.4c-0.9-0.5-1.5-1.3-1.8-2.3
		c-0.7-2.6-1.9-4.9-3.6-7l-0.4-0.5c-4.2-4.6-10.6-6.7-17.1-5.2l-0.6,0.1c-2,0.5-3.8,1.3-5.4,2.3c-1.1,0.7-2.6,0.7-3.7,0.1
		c-1.2-0.6-1.9-1.8-2-3.2c-0.2-3.7-1.3-7.3-3.2-10.5l-0.2-0.3c-2.8-4.3-7.1-7.3-12.5-8.7c0,0-0.1,0-0.1,0c-3.8-0.9-8.1-0.8-12.2,0.3
		c-1.4,0.4-2.9,0.8-4.2,1.3c0,0-0.1,0-0.1,0l-0.1,0c-0.2,0.1-0.4,0.2-0.6,0.2c-1.7,0.7-3.3,1.5-4.8,2.4c-1,0.6-2.3,0.6-3.4,0.2
		c-1.1-0.5-1.9-1.4-2.2-2.6c-0.3-1.4-0.8-2.8-1.4-4.1l-0.2-0.4c-0.2-0.4-0.4-0.8-0.6-1.2c-1-1.8-0.3-4.1,1.5-5.1
		c1.8-1,4.1-0.3,5.1,1.5c0.3,0.6,0.6,1.1,0.8,1.7l0.2,0.5c0.1,0.3,0.2,0.6,0.4,0.9c0.5-0.2,1-0.4,1.4-0.6c0.3-0.1,0.6-0.3,1-0.4
		c0.1,0,0.1,0,0.2-0.1l0.1,0c1.5-0.6,3.1-1.1,4.7-1.5c5.3-1.4,10.9-1.6,16-0.3c0.1,0,0.1,0,0.2,0c7.2,1.8,13.1,6,17,12l0.2,0.3
		c1.6,2.7,2.8,5.6,3.6,8.6c0.8-0.3,1.6-0.6,2.4-0.8l0.4-0.1c0.1,0,0.1,0,0.2,0l0.4-0.1c1.9-0.4,3.8-0.6,5.6-0.6
		c7.2,0,13.8,2.9,18.7,8.1l0.6,0.7c1.7,2,3,4.2,4,6.5c1.9-0.3,3.8-0.5,5.8-0.5c5.2,0,10,1.2,14.4,3.7c4.1-5.2,8.3-10.3,12.7-15.1
		c3.2-3.6,6.9-7.2,10.8-10.6c4.8-4.1,10.1-7.4,15.8-9.9c0.3-0.1,0.6-0.3,1-0.4l0.2-0.1c1.5-0.6,3.1-1.1,4.8-1.5
		c5.3-1.4,10.9-1.6,16-0.3c0.1,0,0.1,0,0.2,0c7.2,1.8,13.1,6,17,12l0.2,0.4c1.6,2.7,2.8,5.6,3.6,8.6c0.8-0.3,1.6-0.6,2.4-0.8
		l0.4-0.1c0.1,0,0.1,0,0.2,0l0.4-0.1c7.1-1.5,14.1-0.1,19.7,3.6c2.8-3.1,5.7-6.1,8.6-9c3.5-3.6,7.6-7.1,12.1-10.4
		c6.4-4.7,13.4-7.6,20.9-8.7l0.3,0c1.3-0.2,2.6-0.3,3.8-0.3c7.7,0,15,3,20.5,8.4l0.4,0.4c5.1,5.3,7.9,11.9,8.2,19.2
		c0,0.1,0,0.1,0,0.2l0,0.8c0,5.1-0.9,9.9-2.7,14.5c0.7,0.3,1.5,0.6,2.2,1l0.1,0.1c5.6,2.8,10.1,7.1,13.4,12.9l0.3,0.5
		c0.2,0.4,0.4,0.8,0.6,1.2c6.2,0.9,11.6,3.9,15.6,8.6l0.2,0.3c0.1,0.1,0.1,0.1,0.2,0.2l0.2,0.3c3.5,4.6,5.3,10.1,5.3,15.9
		c0,6.6-2.4,12.7-6.9,17.9l-0.4,0.5c-0.1,0.1-0.1,0.1-0.2,0.2l-0.4,0.4c-4.5,4.5-9.9,8.2-15.9,11.2c-5.6,2.9-11.5,4.9-17.4,6.1
		c-0.3,0.1-0.7,0.1-1.1,0.2l-0.2,0c-2,0.3-4,0.5-6.1,0.5c-1.3,1-2.7,1.8-4,2.6l-0.1,0.1c0,0-0.1,0-0.1,0.1c-3.1,1.7-6.5,3.1-10,4.1
		c-7.8,2.3-16.2,2.5-23.9,0c-2.2-0.7-4.3-1.5-6.3-2.6c-1.2,0.7-2.4,1.3-3.6,1.9c0,0-0.1,0-0.1,0.1l-0.1,0.1
		c-4.2,2.1-8.8,3.4-13.5,3.9c-1.3,0.1-2.5,0.2-3.6,0.2c-2.7,0-5.4-0.3-8.1-0.9c-4.2-0.9-8-2.5-11.3-4.7c-1.7,0.7-3.4,1.2-5,1.7
		c-4.3,1.4-8.9,2.1-13.5,2.1c-3.5,0-7-0.5-10.3-1.5c-1.7-0.5-3.3-1.2-4.9-1.9c-3,1.1-6.2,1.9-9.4,2.5l-0.4,0.1c-0.1,0-0.1,0-0.2,0
		l-0.4,0.1c-1.6,0.2-3.1,0.3-4.7,0.3c-8.3,0-15.8-2.8-21.9-8.2c-0.4,0.3-0.8,0.6-1.1,1c-4.9,4-10.7,6.1-16.9,6.1
		c-2.7,0-5.4-0.4-8-1.3c-5.7,2-11.4,3-17,3c-6.1,0-12.1-1.5-17.4-4.3c-0.4-0.2-0.9-0.5-1.3-0.7c-2.5,1.1-5,2-7.6,2.8
		c-4.3,1.4-8.9,2.1-13.5,2.1c-3.5,0-7-0.5-10.3-1.5c-1.7-0.5-3.3-1.1-4.9-1.9c-3,1.1-6.2,1.9-9.4,2.5l-0.4,0.1c-0.1,0-0.1,0-0.2,0
		l-0.4,0.1c-1.5,0.2-3.1,0.3-4.7,0.3c-8.3,0-15.8-2.8-21.9-8.2c-0.4,0.3-0.7,0.6-1.1,0.9c-4.9,4-10.7,6.2-16.9,6.2
		c-2.2,0-4.4-0.3-6.4-0.8c-4.5,2.2-9.4,3.9-14.3,5.2l-0.2,0C53.2,149.5,49,150,44.8,150z"/>
	<path class="st0" d="M173.1,72.9c0.4,0,0.8,0,1.1-0.1c1.4-0.4,2.7-1.3,3.9-2.6c1.1-1.3,1.7-2.7,1.9-4.2v-0.4c0-1.3-0.4-2.4-1.1-3.3
		c-0.8-0.9-1.8-1.3-3.1-1.3c-0.3,0-0.7,0-1.1,0.1l0,0c-1.4,0.4-2.8,1.3-4,2.6c-1.3,1.4-2.1,2.8-2.3,4.3c0,0.2-0.1,0.4-0.1,0.6
		c0,1.3,0.5,2.3,1.4,3.1C170.7,72.5,171.8,72.9,173.1,72.9z"/>
	<path class="st0" d="M412.8,96.8c-0.8-1-2-1.4-3.5-1.4c-0.3,0-0.6,0-1,0.1c-2,0.5-3.9,1.6-5.6,3.2c-0.6,0.5-1.2,1-1.8,1.4
		c-2.7,2-5.7,3.6-8.8,4.8c-1,0.4-1.9-0.7-1.3-1.6c1-1.5,1.9-3.2,2.7-5c1.4-3,2.1-5.9,2.1-8.9c0-2.1-0.5-4-1.5-5.8
		c-1.2-2.1-2.7-3.6-4.5-4.5c-1.9-0.9-3.9-1.4-6-1.4c-3.9,0-7.7,1.2-11.4,3.5c-3.3,2.1-5.7,4.7-7.1,7.6c-0.3,0.5-0.9,0.7-1.5,0.5l0,0
		c-0.8-0.4-1.6-0.5-2.4-0.5c-1.9,0-3.6,0.7-5.2,2c-1.5,1.3-2.8,2.6-3.9,4.1c-0.7,0.2-1.4,0.6-2,1c-1.2,0.9-2.3,1.8-3.3,2.8l-0.3,0.2
		c-5.4,5-11.1,9.6-17.1,13.7c-2,1.5-4.3,2.8-6.6,3.8c-0.5,0.2-0.9,0.2-1.4,0.2c-0.6,0-1.1-0.3-1.5-0.8c-0.3-0.6-0.4-1.2-0.4-1.9
		c0-1.3,0.2-2.5,0.7-3.8l0.1-0.5c0.7-2.7,1.7-5.5,2.9-8.5c1.2-2.9,2.7-5.4,4.4-7.5c0.1-0.1,0.1-0.2,0.2-0.2c0.9-0.6,2-1,3.5-1.1
		c0.7-0.1,1.4-0.2,1.9-0.4c3.7-1.2,7.3-2.8,10.7-4.8c11-6.6,20.3-15.1,27.7-25.6c1.8-2.5,3.4-5.1,4.8-7.8c1.4-2.8,2-5.7,2-8.8v-0.2
		c-0.1-2.2-0.9-4.1-2.4-5.7c-1.6-1.5-3.5-2.3-5.6-2.3c-0.3,0-0.6,0-0.9,0.1l0,0c-4.1,0.6-7.9,2.3-11.6,4.9c-3.7,2.7-6.9,5.5-9.7,8.4
		c-7,6.8-13.6,14.3-19.7,22.5c-5.5,7.3-10.1,15-13.9,22.9c-0.2,0.1-0.4,0.2-0.5,0.4c-1.5,1.2-2.9,2.4-4.2,3.8
		c-0.8,0.8-1.6,1.5-2.3,2.1c-3.5,2.9-7.3,5.7-11.5,8.4c-3.8,2.4-7.8,4-11.9,4.6c-0.7,0.1-1.4-0.5-1.3-1.2l0,0
		c0.2-2.3,0.7-4.6,1.7-6.8c0.6-1.4,1.3-2.8,2-4.2c0.1-0.2,0.3-0.5,0.4-0.7c0.6-1,1.2-2,1.8-3c1.7-2.5,3.4-4.7,5.2-6.8
		c0.6-0.7,1.4-1.5,2.2-2.3c1.1-1,2.1-2.1,3.1-3.3c0.9-1.1,1.3-2.4,1.3-3.7c0-0.3-0.1-0.7-0.1-1c-0.3-1.2-0.7-2-1.3-2.5
		c-0.6-0.5-1.3-0.8-2-0.8c-1.3,0-2.7,0.5-4.2,1.4c-1.5,1-2.7,1.9-3.5,2.8c-3.7,3.5-7.1,7.6-10.2,12.2c-0.2,0.3-0.4,0.6-0.6,0.9
		c-0.5,0.5-0.9,1-1.4,1.5c-0.3,0.4-0.7,0.8-1,1.2c-4.4,5-9.5,9.3-15.3,12.8l-0.6,0.4c-0.9,0.5-2,1-3.2,1.6c-1.2,0.6-2.4,0.9-3.5,0.9
		c-0.5,0-0.9-0.1-1.3-0.3c-0.3-0.2-0.5-0.5-0.5-0.9c0-0.7,0.3-1.4,0.8-2.1c0.1-0.2,0.2-0.4,0.3-0.5l0.5-1.1c0.6-1.3,1.2-2.7,1.7-4.1
		c0.5-1.3,0.7-2.8,0.7-4.3c0-0.5,0-0.9-0.1-1.3c-0.3-2.2-1.2-4-2.9-5.2c-1.7-1.3-3.6-1.9-5.8-2.1c-0.4,0-0.7-0.1-1.1-0.1
		c-2.9,0-5.6,0.6-8.4,1.8c-2.8,1.2-5.3,2.6-7.7,4l0.3-0.6c0.7-1.6,1.6-2.9,2.7-4c0.1-0.1,0.2-0.1,0.3-0.2c1-0.5,2-0.9,3.3-1.2
		c0.6-0.1,1.1-0.3,1.6-0.4c1.7-0.5,3.5-1.3,5.1-2.1l1.3-0.6c5.8-3.1,11.1-6.8,15.9-11.2c4-3.5,7.9-7.3,11.7-11.6
		c3.8-4.2,6.6-8.8,8.5-13.8c0.4-1.2,0.6-2.4,0.6-3.6c0-1.8-0.4-3.4-1.3-4.8c-0.9-1.5-2.4-2.5-4.4-3c-0.7-0.2-1.4-0.2-2.1-0.2
		c-1.1,0-2.1,0.1-3.2,0.4c-1.1,0.3-2.1,0.6-3.1,1c0,0-0.1,0-0.1,0c-3.8,1.6-7.3,3.8-10.5,6.6c-3.2,2.8-6.2,5.7-8.9,8.7
		c-10.1,11.2-19.2,23.3-27.2,36.2c-0.9,0.8-1.8,1.7-2.6,2.6l-1.9,2c-5.1,5.4-10.8,9.9-17.1,13.6c-1.5,0.8-3,1.5-4.6,2.1
		c-1.7,0.6-3.3,0.9-5.1,0.9h-0.6c-1.5-0.1-2.5-0.5-3.1-1.2c-0.6-0.7-0.8-1.6-0.8-2.6c0-0.9,0.2-1.9,0.5-3c0.3-1,0.6-1.9,1-2.8
		c0.5-1,1-2,1.5-3c0.1-0.2,0.2-0.4,0.3-0.6c1.4-2.5,3.1-5,5-7.3c2.5-2.9,5.2-5.4,8.3-7.5c0.6-0.4,1.5-0.1,1.7,0.6l0,0
		c0.2,0.7,0.6,1.3,1.1,1.9c0.9,1,2,1.4,3.2,1.4c0.8,0,1.7-0.3,2.6-0.8c0.9-0.7,1.6-1.6,2-2.8c0.4-1.2,0.6-2.4,0.6-3.4v-0.2
		c0-1-0.2-2-0.6-3c-0.7-1.7-1.7-2.9-3-3.6c-1.3-0.7-2.7-1.1-4.2-1.1c-1.7,0-3.3,0.3-5.1,0.9c-1.7,0.6-3.2,1.3-4.6,2.1
		c-2.8,1.6-5.2,3.6-7.3,6c-2,2.2-4.1,4.7-6.2,7.5c-0.9,1.2-1.7,2.4-2.5,3.7c-1.4,1.1-2.7,2.3-4,3.6c-0.8,0.8-1.6,1.5-2.3,2.1
		c-3.5,2.9-7.3,5.7-11.5,8.4c-3.8,2.4-7.8,4-11.9,4.6c-0.7,0.1-1.4-0.5-1.3-1.2l0,0c0.2-2.3,0.7-4.6,1.7-6.8c0.6-1.4,1.3-2.8,2-4.2
		c0.1-0.2,0.3-0.5,0.4-0.7c0.6-1,1.2-2,1.8-3c1.7-2.5,3.4-4.7,5.2-6.8c0.6-0.7,1.4-1.5,2.2-2.3c1.1-1,2.1-2.1,3.1-3.3
		c0.9-1.1,1.3-2.4,1.3-3.7c0-0.3-0.1-0.7-0.1-1c-0.3-1.2-0.7-2-1.3-2.5c-0.6-0.5-1.3-0.8-2-0.8c-1.3,0-2.7,0.5-4.2,1.4
		c-1.5,1-2.7,1.9-3.5,2.8c-3.7,3.5-7.1,7.6-10.2,12.2c-0.2,0.3-0.4,0.6-0.6,0.9c-0.5,0.5-0.9,1-1.4,1.5c-0.3,0.4-0.7,0.8-1,1.2
		c-4.4,5-9.5,9.3-15.3,12.8l-0.6,0.4c-0.9,0.5-2,1-3.2,1.6c-1.2,0.6-2.4,0.9-3.5,0.9c-0.5,0-0.9-0.1-1.3-0.3
		c-0.3-0.2-0.5-0.5-0.5-0.9c0-0.7,0.3-1.4,0.8-2.1c0.1-0.2,0.2-0.4,0.3-0.5l0.5-1.1c0.6-1.3,1.2-2.7,1.7-4.1
		c0.5-1.3,0.7-2.8,0.7-4.3c0-0.5,0-0.9-0.1-1.3c-0.3-2.2-1.2-4-2.9-5.2c-1.7-1.3-3.6-1.9-5.8-2.1c-0.4,0-0.7-0.1-1.1-0.1
		c-2.9,0-5.6,0.6-8.4,1.8c-2.8,1.2-5.3,2.6-7.7,4l0.3-0.6c0.7-1.6,1.6-2.9,2.7-4c0.1-0.1,0.2-0.1,0.3-0.2c1-0.5,2-0.9,3.3-1.2
		c0.6-0.1,1.1-0.3,1.6-0.4c1.7-0.5,3.5-1.3,5.1-2.1l1.3-0.6c5.8-3.1,11.1-6.8,15.9-11.2c4-3.5,7.9-7.3,11.7-11.6
		c3.8-4.2,6.6-8.8,8.5-13.8c0.4-1.2,0.6-2.4,0.6-3.6c0-1.8-0.4-3.4-1.3-4.8c-0.9-1.5-2.4-2.5-4.4-3c-0.7-0.2-1.4-0.2-2.1-0.2
		c-1.1,0-2.1,0.1-3.2,0.4c-1.1,0.3-2.1,0.6-3.1,1c0,0-0.1,0-0.1,0c-3.8,1.6-7.3,3.8-10.5,6.6c-3.2,2.8-6.2,5.7-8.9,8.7
		c-10.2,11.3-19.3,23.4-27.4,36.4c-0.7,1-1.3,2-1.9,3c-0.8,0.3-1.7,0.8-2.6,1.5c-1.7,1.3-3.1,2.5-4.3,3.6c-0.3,0.2-0.5,0.4-0.6,0.6
		c-4,3.7-8.4,7.1-13.2,10.2c-4.8,3.2-10,5.2-15.5,6.1c-1,0.1-2,0.2-3,0.2c-2.1,0-4.2-0.4-6.3-1.1c-2.1-0.7-3.7-2-4.9-3.8
		c-1.5-2.5-2.2-5.1-2.2-8c0-3.3,0.6-6.6,1.9-9.9c1.2-3.3,2.6-6.3,4-8.9c7.9-15.6,18.6-29,32-40.3c2.9-2.4,6-4.7,9.3-6.8
		c3.3-2.1,6.8-3.5,10.6-4.4c0,0,0.1,0,0.1,0c0.7-0.1,1.5-0.2,2.2-0.3h0.5c0.9,0,1.5,0.2,1.9,0.5c0.3,0.3,0.5,0.8,0.5,1.3
		c0,0.6-0.2,1.4-0.5,2.2c-0.3,0.8-0.7,1.7-1.1,2.5c-0.6,1.2-1,2.1-1.2,2.9c-0.1,0.3-0.1,0.6-0.1,0.9c0,1.2,0.4,2.2,1.1,3.2
		c0.8,1,1.8,1.5,3.1,1.5c0.2,0,0.4,0,0.7-0.1c1.5-0.2,2.7-1,3.6-2.2c0.9-1.2,1.6-2.4,2.2-3.7c0.1-0.2,0.3-0.5,0.4-0.7
		c1.1-2.3,1.6-4.6,1.6-7c0-2-0.4-3.9-1.1-5.7c-0.8-1.8-2-3.2-3.6-4.3c-1.6-1.1-3.6-1.6-5.9-1.6c-0.6,0-1.1,0-1.7,0.1l0,0
		c-6.9,0.9-13.2,3.1-19,6.5c-5.8,3.5-11.1,7.6-16,12.4c-6.9,6.5-13.3,13.8-19,21.7C31.6,73.8,27,82.3,23.8,91.2
		c-1.8,4.9-2.8,9.9-2.8,15.1c0,2.9,0.4,5.7,1.1,8.4c0.8,2.7,2.1,5.1,3.8,7.2c1.7,2.1,4.1,3.9,7.2,5.2c2.9,1.1,5.8,1.8,9,2.1
		c0.9,0.1,1.8,0.1,2.8,0.1c2.5,0,5-0.3,7.5-0.9c5.8-1.5,11.3-3.8,16.3-7.1c1.7-1.1,3.4-2.3,5-3.5c0,0.2-0.1,0.4-0.1,0.6
		c0,1.2,0.4,2.3,1.3,3.3c1.2,1.2,2.3,1.8,3.4,1.8c1.2,0,2.3-0.4,3.4-1.3c1.1-0.9,2.1-1.8,3-2.8l0.6-0.6c5-4.9,10.5-9.1,16.6-12.5
		c0.3-0.2,0.6-0.3,0.8-0.4c1.7-1.1,3.4-1.9,5.2-2.4c0.9-0.3,1.7,0.7,1.3,1.6l0,0c-0.2,0.4-0.4,0.8-0.5,1.1c0,0,0,0,0,0.1
		c-1,1.8-1.7,3.7-2.1,5.7c0,0,0,0.1,0,0.1c0,0.4-0.1,0.8-0.1,1.2c0,3.2,1.1,5.9,3.4,8c2.3,2.2,5,3.3,8.3,3.3c0.6,0,1.3,0,1.9-0.1
		c5.2-0.9,10-2.9,14.4-5.8c1.1-0.8,2.3-1.6,3.4-2.4c0.1,0.8,0.3,1.6,0.5,2.3c0.4,1.5,1.2,2.8,2.4,4c1,1,2.2,1.6,3.5,2
		c1.3,0.4,2.7,0.6,4.1,0.6c2.5,0,4.9-0.4,7.2-1.1c3.9-1.2,7.6-2.9,11.2-5.1c2.6-1.6,5-3.3,7.5-5.1c0.2,1.1,0.5,2.3,1,3.4
		c1.3,2.9,3.1,4.9,5.4,6.1c2.3,1.2,4.7,1.8,7.5,1.8c3.4,0,6.8-0.6,10.3-1.9c3.5-1.3,6.5-2.8,9.1-4.4c0.3-0.2,0.6-0.4,0.9-0.6
		c0,0.1,0,0.2,0,0.2c0,1.2,0.4,2.3,1.3,3.3c1.2,1.2,2.3,1.8,3.4,1.8c1.2,0,2.3-0.4,3.4-1.3c1.1-0.9,2.1-1.8,3-2.8l0.6-0.6
		c5-4.9,10.5-9.1,16.6-12.5c0.3-0.2,0.6-0.3,0.8-0.4c1.7-1.1,3.4-1.9,5.2-2.4c0.9-0.3,1.7,0.7,1.3,1.6l0,0c-0.2,0.4-0.4,0.8-0.5,1.1
		c0,0,0,0,0,0.1c-1,1.8-1.7,3.7-2.1,5.7c0,0,0,0.1,0,0.1c0,0.4-0.1,0.8-0.1,1.2c0,3.2,1.1,5.9,3.4,8c2.3,2.2,5,3.3,8.2,3.3
		c0.6,0,1.3,0,1.9-0.1c5.2-0.9,10-2.9,14.4-5.8c1.1-0.8,2.3-1.6,3.4-2.4c0.1,0.8,0.3,1.6,0.5,2.3c0.4,1.5,1.2,2.8,2.4,4
		c1,1,2.2,1.6,3.5,2c1.3,0.4,2.7,0.6,4.1,0.6c2.5,0,4.9-0.4,7.2-1.1c3.9-1.2,7.6-2.9,11.2-5.1c2.7-1.7,5.2-3.4,7.7-5.3
		c0,0.5-0.1,1-0.1,1.5c0,2.7,0.6,5.1,1.9,7.2c1.2,2.1,3.4,3.6,6.6,4.3c1.1,0.2,2.2,0.4,3.4,0.4c0.4,0,0.8,0,1.2-0.1
		c2.3-0.2,4.5-0.9,6.6-1.9c2.1-1,4.1-2.2,5.9-3.4c3.7-2.5,7.3-5.1,10.7-7.9c0.2,1.2,0.5,2.4,0.9,3.5c0.7,1.8,1.8,3.3,3.5,4.7
		c1.5,1.2,3,2.1,4.7,2.6c1.7,0.5,3.4,0.8,5.1,0.8c2.1,0,4.3-0.3,6.4-0.9c2.1-0.6,4.1-1.4,6-2.5c1-0.5,1.9-1.2,2.9-2
		c1.3-1.1,2.6-1.9,3.9-2.5c0.1,0,0.1,0,0.2-0.1c1.6-0.4,3.4-0.7,5.3-0.7h0.5c1.6,0,3.1-0.1,4.5-0.3c0,0,0.1,0,0.1,0
		c4.1-0.8,8.1-2.3,12.2-4.3c4-2,7.6-4.5,10.5-7.4c1.1-1.3,1.7-2.7,1.7-4.2C413.9,99,413.5,97.8,412.8,96.8z M338.8,76.2
		c2.1-3.1,4.5-6.2,7.2-9.2c3.7-4.1,7.5-7.9,11.3-11.3c0.3-0.3,0.6-0.5,0.8-0.8c1.4-1.3,2.9-2.6,4.5-3.8c0.6-0.5,1.2-0.9,1.8-1.3
		c1-0.6,2.2,0.4,1.7,1.4l0,0c-2,3.7-4.5,7.2-7.5,10.4c-3.8,4.1-7.8,7.9-12,11.2l-1.7,1.4c-1.4,1.3-2.9,2.4-4.4,3.4
		C339.4,78.4,338.1,77.2,338.8,76.2z M249.6,70.7C249.6,70.7,249.6,70.7,249.6,70.7c0.6-0.6,1.1-1.2,1.6-1.8c0.3-0.4,0.7-0.8,1-1.2
		c2.3-2.8,4.8-5.6,7.5-8.4c1.6-1.6,3.3-3,5.1-4.2c1-0.7,2.3,0.6,1.6,1.6l0,0c-0.2,0.3-0.5,0.6-0.7,0.9c-1.2,1.6-2.5,3-3.8,4.3
		l-0.4,0.5c-3.2,3.6-6.6,6.9-10.4,9.9C250.1,73.2,248.6,71.8,249.6,70.7z M114.9,70.7C114.9,70.7,114.9,70.7,114.9,70.7
		c0.6-0.6,1.1-1.2,1.6-1.8c0.3-0.4,0.7-0.8,1-1.2c2.3-2.8,4.8-5.6,7.5-8.4c1.6-1.6,3.3-3,5.1-4.2c1-0.7,2.3,0.6,1.6,1.6l0,0
		c-0.2,0.3-0.5,0.6-0.7,0.9c-1.2,1.6-2.5,3-3.8,4.3l-0.4,0.5c-3.2,3.6-6.6,6.9-10.4,9.9C115.4,73.2,113.9,71.8,114.9,70.7z
		 M365.8,113.4c-0.9,0.4-1.9,0.7-2.9,1.1c-1.1,0.4-2.1,0.6-3.1,0.6c-0.9,0-1.8-0.2-2.6-0.7c-0.6-0.4-0.9-0.9-1-1.6
		c-0.2-0.6-0.3-1.2-0.3-1.8v-0.9c0-1.9,0.5-4,1.5-6.1c1-2.1,2.3-3.8,3.9-5v0.6h0c0,2.9,0.5,5.3,1.4,7.2c0.9,1.9,2.3,4,4,6.3
		L365.8,113.4z M384.6,92.2c-1.5,3.8-3.5,7.3-6.1,10.5c-0.1,0.2-0.3,0.4-0.4,0.6c-0.7,1.2-1.6,2-2.6,2.5c-0.2,0-0.4,0.1-0.6,0.1
		c-1.1,0-2-0.6-2.4-1.9c-0.5-1.3-0.7-2.4-0.7-3.5c0-0.5,0.1-0.9,0.1-1.2c0.5-2.5,1.7-4.9,3.5-7.2c1.7-2.2,3.9-3.6,6.6-4.1
		c0.3,0,0.7-0.1,1-0.1c0.8,0,1.4,0.2,1.8,0.5c0.3,0.4,0.5,0.9,0.5,1.6C385,90.7,384.9,91.4,384.6,92.2z"/>
	<path class="st0" d="M307.8,72.9c0.4,0,0.8,0,1.1-0.1c1.4-0.4,2.8-1.3,3.9-2.6c1.1-1.3,1.7-2.7,1.9-4.2v-0.4c0-1.3-0.4-2.4-1.1-3.3
		c-0.8-0.9-1.8-1.3-3.1-1.3c-0.3,0-0.7,0-1.1,0.1l0,0c-1.4,0.4-2.7,1.3-4,2.6c-1.3,1.4-2.1,2.8-2.3,4.3c0,0.2-0.1,0.4-0.1,0.6
		c0,1.3,0.5,2.3,1.4,3.1C305.4,72.5,306.5,72.9,307.8,72.9z"/>
	<path class="st0" d="M23.2,65.7c-0.2-0.4-0.4-0.7-0.8-0.9c-0.4-0.3-0.8-0.4-1.2-0.4c-0.2,0-0.4,0-0.7,0l-0.5,0.1l0,0.5
		c0,0.4-0.1,0.9-0.2,1.5c-0.1,0.6-0.5,1.3-1,2.1c-1,1.4-2.2,2.3-3.6,2.5c-1.4,0.3-2.9-0.2-4.6-1.2l-0.4-0.3c-0.9-0.6-1.6-1.3-2-2.1
		c-0.5-0.8-0.8-1.7-0.7-2.6c0-0.9,0.4-1.8,1-2.7c0.5-0.7,1-1.3,1.6-1.7c0.5-0.3,0.9-0.6,1.3-0.8l0.4-0.2L11.9,59
		c0-0.2-0.1-0.4-0.2-0.7l-0.1-0.2c-0.2-0.3-0.4-0.5-0.8-0.7c-0.5-0.3-1-0.4-1.7-0.2c-0.7,0.1-1.3,0.5-2.1,1.1
		c-0.7,0.6-1.4,1.4-2.1,2.4c-1,1.4-1.5,2.9-1.7,4.6c-0.2,1.6,0.1,3.2,0.9,4.7c0.8,1.5,2,2.8,3.8,4c1.9,1.2,3.7,1.9,5.4,2
		c0.1,0,0.3,0,0.4,0c1.5,0,3-0.4,4.2-1.2l0.1,0c1.4-0.8,2.6-2,3.6-3.5c0.6-0.9,1-1.6,1.2-2.3c0.2-0.7,0.4-1.3,0.4-1.7
		C23.5,66.6,23.4,66.1,23.2,65.7z"/>
	<path class="st0" d="M66.4,18.4L66.4,18.4l-2.9-5.1l0,0l-1.8-3.2c-0.4-0.7-0.9-1.1-1.4-1.2h0c-0.5-0.1-1.1,0.1-1.9,0.5
		c-0.4,0.2-0.7,0.4-1,0.7l-0.8,0.6l8.3,14.4c0.4,0.7,0.9,1.1,1.4,1.2c0.1,0,0.2,0,0.3,0c0.4,0,1-0.2,1.7-0.6
		c0.4-0.2,0.7-0.4,1.1-0.7c0.1-0.1,0.2-0.1,0.3-0.2l0.4-0.3L66.4,18.4z"/>
	<path class="st0" d="M45.8,34.6L45.8,34.6l-2.2-2.1l-5.9-5.9c-0.5-0.5-1.1-0.8-1.6-0.8h0c-0.5,0-1.1,0.4-1.7,1
		c-0.3,0.3-0.6,0.6-0.8,0.9l-0.5,0.7l3.7,3.7l3.5,3.4c0.5,0.4,1,0.9,1.5,1.3l0.5,0.5l0,0l0.4,0.4l-0.5-0.3c-0.5-0.2-0.9-0.4-1.4-0.6
		c-0.5-0.2-0.9-0.3-1.4-0.5c-0.4-0.2-0.9-0.3-1.3-0.4l-7.9-2.4c-0.8-0.3-1.5-0.3-2.1,0c-0.6,0.3-1.1,0.6-1.6,1.1
		c-0.4,0.4-0.8,0.9-1,1.4c-0.2,0.4-0.3,0.7-0.3,1.1l0,0.3l11.3,11.3c0.5,0.5,1,0.8,1.5,0.8c0,0,0.1,0,0.1,0c0.5,0,1-0.4,1.7-1
		c0.3-0.3,0.6-0.6,0.8-0.9l0.5-0.7l-4.2-4.2c-0.5-0.5-1.1-1.1-1.7-1.6c-0.3-0.3-0.6-0.6-0.9-0.8l0,0l-0.5-0.4
		c-0.2-0.2-0.3-0.3-0.5-0.4c-0.3-0.3-0.6-0.6-1-0.8l-0.1-0.1l-0.8-0.7l1.9,0.8c0.2,0.1,0.5,0.2,0.7,0.3l0.7,0.3
		c0.5,0.2,0.9,0.3,1.4,0.5l7.7,2.4c0.8,0.3,1.5,0.3,2.1,0c0.6-0.3,1.2-0.6,1.6-1.1c0.5-0.5,0.8-0.9,1.1-1.4c0.2-0.3,0.3-0.6,0.3-0.8
		l0.1-0.3L45.8,34.6z"/>
	<path class="st0" d="M50.5,19.3L50.5,19.3c0,0,0-0.1-0.1-0.1l3.1-2.3c0.4-0.3,0.6-0.7,0.7-1.1c0-0.4-0.1-0.9-0.5-1.4l-0.2-0.2
		c-0.2-0.2-0.4-0.4-0.6-0.5c-0.1-0.1-0.3-0.2-0.4-0.2l-0.4-0.2l-10.9,8c-0.4,0.3-0.6,0.7-0.7,1.1l0,0.2c0,0.4,0.2,0.8,0.6,1.3
		l0.2,0.2c0.2,0.2,0.4,0.4,0.6,0.5c0.1,0.1,0.2,0.2,0.4,0.2l0.4,0.2l4-2.9l7.8,10.2c0.5,0.6,1,1,1.5,1c0,0,0,0,0.1,0
		c0.5,0,1.1-0.3,1.8-0.8c0.4-0.3,0.7-0.5,1-0.8l0.2-0.2l0.4-0.4L50.5,19.3z"/>
	<path class="st0" d="M87.2,13.2L87.2,13.2l-0.7-2.1h0L86,9.4l0,0l0,0l-2.5-7.7c-0.2-0.7-0.6-1.2-1.1-1.4l-0.1,0
		c-0.4-0.1-1-0.1-1.8,0.2l0,0c-0.4,0.1-0.8,0.3-1.2,0.5l-0.8,0.4l1.6,4.9c0.4,1.2,0.8,2.4,1.2,3.6c0,0,0,0.1,0.1,0.1l0,0l0,0.1
		c0.3,0.8,0.6,1.6,1,2.6l0.3,0.7l0.2,0.5l0,0l-0.3-0.4c-0.3-0.4-0.6-0.8-1-1.1l-1-1.1c-0.4-0.4-0.7-0.7-1.1-1.1l-5.7-5.5l0,0
		c-0.6-0.6-1.2-0.9-1.9-0.9c-0.6,0-1.3,0.1-1.9,0.3c-0.6,0.2-1.1,0.4-1.6,0.8c-0.3,0.3-0.6,0.5-0.8,0.8l-0.1,0.2l4.8,15.1
		c0.2,0.7,0.6,1.2,1,1.4c0.2,0.1,0.4,0.1,0.6,0.1c0.4,0,0.8-0.1,1.3-0.2c0.4-0.1,0.8-0.3,1.1-0.4l0.8-0.4l-1.8-5.6
		c-0.2-0.7-0.5-1.4-0.7-2.2c-0.3-0.8-0.5-1.5-0.8-2.3l0,0c-0.1-0.4-0.3-0.8-0.5-1.2l-0.3-0.7l0,0l0.2-0.1l1.1,1.2
		c0.3,0.4,0.7,0.7,1,1.1l0.1,0.1c0.3,0.3,0.6,0.6,0.9,1l5.7,5.6c0.6,0.6,1.2,0.9,1.9,1c0.6,0,1.3,0,2-0.3l0.4-0.2
		c0.4-0.2,0.8-0.4,1.1-0.6c0.3-0.2,0.5-0.4,0.7-0.6l0.2-0.3L87.2,13.2z"/>
	<path class="st0" d="M106.9,19.2c-0.1-1.1-0.2-2.3-0.4-3.7c-0.2-1.5-0.3-3.1-0.5-4.7c-0.2-1.6-0.4-3.1-0.6-4.6
		c-0.2-1.5-0.4-2.8-0.6-3.9l0-0.2c-0.1-0.5-0.5-0.9-1-1.2c-0.6-0.4-1.4-0.6-2.3-0.8C100.9,0,100.3,0,99.6,0c-0.5,0-0.9,0.1-1.2,0.2
		l-0.2,0.1l-0.1,0.2c-0.3,0.5-0.7,1.1-1.1,1.8l0,0.1c-0.5,0.9-1.1,1.9-1.8,2.9c-0.6,1.1-1.3,2.1-1.9,3.2l-1.7,3.1
		c-0.5,0.9-0.9,1.7-1.2,2.3l-0.5,1c-0.1,0.2-0.1,0.4-0.2,0.6c-0.1,0.6,0,1.1,0.4,1.4c0.3,0.3,0.9,0.6,1.6,0.7l0.3,0.1
		c0.4,0.1,0.7,0.1,1,0.1c0.2,0,0.3,0,0.4,0l0.4,0l0.5-1c0.2-0.3,0.3-0.7,0.5-1.1c0.1-0.1,0.1-0.3,0.2-0.4l0,0l0.2-0.4
		c0-0.1,0.1-0.1,0.1-0.2l0.4-0.7l0.1,0l0,0l5.3,1l0.7,0.1l0.1,0.1l0.3,2.7c0.1,0.5,0.2,1,0.4,1.4l0.1,0.1c0.3,0.4,0.8,0.6,1.7,0.8
		l0.4,0.1c0.2,0,0.3,0,0.5,0c0.2,0,0.5,0,0.7-0.1c0.2,0,0.5-0.1,0.7-0.2l0.4-0.2L106.9,19.2z M97.2,10.5l0.2-0.4
		C97.7,9.6,98,9,98.3,8.5c0.4-0.8,0.9-1.6,1.3-2.3c0.4-0.7,0.8-1.4,1.1-2v0l0.2,0l0,0c0.1,0.6,0.1,1.3,0.2,2.1
		c0.1,0.6,0.1,1.2,0.2,1.8l0.1,0.7c0.1,0.7,0.1,1.4,0.2,2.1l0,0.5L97.2,10.5z"/>
	<path class="st0" d="M35.5,50.9c-1-0.4-2.2-0.9-3.5-1.4c-1.4-0.6-2.9-1.2-4.4-1.8c-1.5-0.6-3-1.2-4.4-1.7c-1.4-0.5-2.7-1-3.8-1.4
		c-0.6-0.2-1.2-0.1-1.8,0.3l0,0c-0.6,0.4-1.2,0.9-1.8,1.6c-0.4,0.5-0.7,1-1,1.6c-0.2,0.4-0.3,0.8-0.4,1.1l-0.1,0.2l0.1,0.2
		c0.3,0.5,0.7,1.1,1.1,1.9l1.8,2.9c0.6,1.1,1.3,2.1,2,3.2l1.9,2.9c0.5,0.7,0.8,1.3,1.2,1.7l0.3,0.4c0.2,0.3,0.4,0.5,0.6,0.8
		c0.1,0.2,0.3,0.3,0.4,0.5l0.1,0.1c0.3,0.3,0.7,0.4,1,0.4c0.2,0,0.3,0,0.5-0.1c0.5-0.2,1.1-0.6,1.6-1.2c0.3-0.3,0.4-0.6,0.6-0.8
		l0.3-0.8l-0.6-0.8c-0.2-0.3-0.5-0.6-0.7-1c-0.2-0.2-0.4-0.5-0.5-0.7l-0.6-0.8l0-0.1l0,0l3.4-4.1l0.3-0.4l0.2-0.3l0,0l0,0l2.5,1
		c0.6,0.2,1.1,0.3,1.6,0.2l0.1,0c0.4-0.1,0.9-0.5,1.4-1.1c0.4-0.4,0.6-0.9,0.8-1.4c0.1-0.3,0.1-0.5,0.1-0.7l0-0.5L35.5,50.9z
		 M23.1,55.2L23.1,55.2L23.1,55.2l-0.3-0.4c-0.4-0.5-0.7-1.1-1.1-1.6L20.4,51c-0.5-0.7-0.9-1.3-1.3-1.9l0,0l0.1-0.2l2,0.8
		c0.7,0.3,1.5,0.6,2.4,0.9c0.6,0.3,1.3,0.5,2,0.8l0.4,0.2l0,0L23.1,55.2z"/>
</g>
</svg>
