<svg width="346" height="119" viewBox="0 0 346 119" fill="none" xmlns="http://www.w3.org/2000/svg">
<path d="M93.598 17.8922C93.8071 18.2796 94.0002 18.6748 94.1852 19.0779L94.3381 19.4257C94.853 20.6431 95.2713 21.892 95.585 23.1646C96.9204 22.4216 98.2961 21.7497 99.6878 21.149C99.889 21.062 100.114 20.9671 100.339 20.8802L100.484 20.8328C101.635 20.4059 102.825 20.0265 104.032 19.6945C106.067 19.1333 108.159 18.8487 110.251 18.8487C111.932 18.8487 113.605 19.0463 115.222 19.4416L115.303 19.4653C120.323 20.7221 124.361 23.5599 126.992 27.6703L127.145 27.9153C128.938 30.8558 129.968 34.1995 130.137 37.6459C131.73 36.6657 133.435 35.9385 135.229 35.4563L135.543 35.3694L135.865 35.2982C137.136 35.0216 138.423 34.8793 139.694 34.8793C144.553 34.8793 149.026 36.8238 152.268 40.3572L152.493 40.6022L152.711 40.8552C154.36 42.8392 155.518 45.0999 156.154 47.5346C158.318 46.9654 160.514 46.6809 162.694 46.6809C166.298 46.6809 169.693 47.5504 172.782 49.2736C173.498 49.6688 174.182 50.1194 174.842 50.6095C178.502 45.7797 182.364 41.1081 186.41 36.6262C188.888 33.8438 191.704 31.093 194.728 28.5081C198.308 25.457 202.274 22.9749 206.506 21.149C206.707 21.062 206.94 20.9671 207.165 20.8802L207.294 20.8328C208.445 20.4059 209.643 20.0265 210.85 19.6945C212.885 19.1333 214.977 18.8487 217.069 18.8487C218.75 18.8487 220.423 19.0463 222.04 19.4416L222.121 19.4653C227.141 20.7221 231.179 23.5599 233.81 27.6703L233.962 27.9153C235.756 30.8479 236.786 34.1995 236.955 37.6459C238.548 36.6657 240.253 35.9385 242.047 35.4563L242.361 35.3694L242.683 35.2982C243.954 35.0216 245.241 34.8793 246.512 34.8793C250.873 34.8793 254.919 36.4444 258.048 39.3138C260.816 36.1519 263.68 33.1244 266.624 30.2551C269.319 27.4726 272.432 24.7851 275.892 22.2556C280.566 18.8487 285.674 16.7066 291.112 15.8687L291.329 15.837C292.198 15.7185 293.075 15.6631 293.936 15.6631C299.254 15.6631 304.265 17.7104 308.063 21.4335L308.199 21.5679L308.328 21.7023C311.836 25.3463 313.79 29.9231 313.992 34.9583V35.2192L314 35.6223C314 40.1121 312.994 44.428 311.007 48.4515C310.943 48.5859 310.878 48.7203 310.806 48.8546C312.35 49.2578 313.847 49.8269 315.303 50.5383L315.415 50.5937C319.309 52.5461 322.438 55.5657 324.715 59.5733L324.916 59.929C325.31 60.672 325.664 61.4309 325.97 62.1976C330.789 62.4901 335.053 64.5927 338.069 68.1814L338.279 68.4265L338.472 68.6873C340.861 71.8096 342.124 75.5485 342.124 79.485C342.124 83.9511 340.483 88.1564 337.394 91.6502L337.08 91.998L336.75 92.3221C333.379 95.6342 329.405 98.4403 324.94 100.661C320.685 102.819 316.292 104.369 311.892 105.278C311.699 105.317 311.449 105.365 311.184 105.404L311.023 105.428C309.301 105.681 307.475 105.815 305.577 105.823C304.426 106.724 303.22 107.531 301.981 108.21L301.804 108.313C299.487 109.554 297.001 110.566 294.419 111.325C291.466 112.202 288.441 112.637 285.425 112.637C282.641 112.637 279.89 112.21 277.235 111.364C275.16 110.732 273.189 109.823 271.354 108.653C270.003 109.475 268.595 110.258 267.163 110.977L267.059 111.024C263.937 112.558 260.647 113.522 257.268 113.902C256.407 113.989 255.587 114.036 254.766 114.036C252.827 114.036 250.889 113.815 249.006 113.388C245.072 112.503 242.08 110.93 239.819 109.151C238.106 109.886 236.344 110.534 234.558 111.072C231.372 112.084 228.066 112.59 224.719 112.59C222.249 112.59 219.812 112.226 217.463 111.499C215.862 111.024 214.341 110.368 212.926 109.538C210.295 110.566 207.568 111.333 204.752 111.831L204.438 111.886L204.133 111.926C203.03 112.068 201.912 112.139 200.802 112.139C194.624 112.139 189.057 109.918 184.689 105.705C184.286 105.317 183.9 104.922 183.53 104.519C182.629 105.404 181.672 106.274 180.666 107.096C177.336 109.847 173.37 111.293 169.186 111.293C167.433 111.293 165.228 111.017 162.871 110.052C162.734 110.108 162.598 110.155 162.461 110.21C158.101 111.831 153.732 112.637 149.42 112.637C145.108 112.637 140.837 111.625 137.056 109.617C136.299 109.222 135.567 108.787 134.859 108.305C132.559 109.412 130.177 110.337 127.74 111.072C124.554 112.084 121.248 112.59 117.901 112.59C115.431 112.59 112.994 112.226 110.645 111.499C109.044 111.024 107.523 110.368 106.108 109.538C103.485 110.566 100.75 111.333 97.9341 111.831L97.6203 111.886L97.3146 111.926C96.2125 112.068 95.0943 112.139 93.9841 112.139C87.8058 112.139 82.2388 109.918 77.8705 105.705C77.4683 105.317 77.0821 104.922 76.7121 104.519C75.8111 105.404 74.8537 106.274 73.8562 107.096C70.5176 109.847 66.5516 111.293 62.3683 111.293C60.8479 111.293 58.9895 111.088 56.9944 110.408C53.2456 112.305 49.2876 113.775 45.1767 114.811L44.9997 114.858C41.999 115.57 38.926 115.925 35.8609 115.925C34.6944 115.925 33.5199 115.87 32.3856 115.767C28.6206 115.412 24.9523 114.534 21.4769 113.159L21.1149 113.009C16.7386 111.135 13.1184 108.487 10.3511 105.151C7.72847 102.053 5.82992 98.4956 4.7117 94.5749C3.76242 91.2787 3.28778 87.8244 3.28778 84.3147C3.28778 79.8961 3.89918 75.5169 5.12198 71.2721" stroke="#FAF9E7" stroke-width="6" stroke-linecap="round" stroke-linejoin="round"/>
<mask id="path-2-inside-1_250_87" fill="white">
<path d="M72.8024 19.987C73.277 19.9237 73.7275 19.8921 74.17 19.8921C76.0283 19.8921 77.5971 20.3269 78.8842 21.1885C80.1311 22.0817 81.0804 23.2279 81.724 24.627C82.3354 26.0577 82.6331 27.5675 82.6331 29.1563C82.6331 31.0139 82.2067 32.8557 81.37 34.6817C81.2654 34.8477 81.1689 35.0295 81.0643 35.2271C80.5897 36.2547 80.0024 37.2349 79.2945 38.1676C78.5866 39.132 77.6373 39.709 76.4547 39.9066C76.2536 39.9382 76.0686 39.954 75.8996 39.954C74.886 39.954 74.0735 39.5588 73.4701 38.7604C72.8587 37.9937 72.5611 37.1479 72.5611 36.2231C72.5611 35.9543 72.5932 35.7093 72.6656 35.4721C72.8024 34.8714 73.1242 34.1125 73.631 33.1798C73.9367 32.5474 74.2183 31.8992 74.4918 31.2352C74.7653 30.5713 74.894 29.9863 74.894 29.4883C74.894 29.0931 74.7573 28.7611 74.4918 28.4923C74.2183 28.2236 73.7356 28.0971 73.0196 28.0971H72.6174C72.0221 28.1604 71.4267 28.2394 70.8395 28.3422C70.8073 28.3422 70.7832 28.3501 70.759 28.358C67.7986 29.022 65.0151 30.1839 62.3925 31.836C59.7217 33.496 57.26 35.2903 54.9913 37.2111C44.316 46.1434 35.8529 56.7751 29.6022 69.13C28.4839 71.2247 27.4381 73.5803 26.4567 76.1967C25.443 78.8527 24.9362 81.477 24.9362 84.0618C24.9362 86.3542 25.5074 88.4726 26.6578 90.4329C27.6071 91.8637 28.9023 92.8755 30.5595 93.4683C32.2167 94.0691 33.89 94.3615 35.5794 94.3615C36.3919 94.3615 37.1803 94.3141 37.9606 94.2113C42.3209 93.5157 46.4076 91.9032 50.2208 89.3816C54.0019 86.8917 57.4852 84.1883 60.6629 81.2636C60.7996 81.1292 60.9686 80.979 61.1697 80.813C62.0788 79.9198 63.2131 78.9554 64.5646 77.9278C65.8839 76.9319 67.1469 76.4339 68.3617 76.4339C68.9731 76.4339 69.5443 76.6315 70.0833 77.0346C70.5901 77.4298 71.0325 78.1096 71.4026 79.074C71.5715 79.5404 71.652 79.9909 71.652 80.4178C71.652 81.6825 71.1613 82.8208 70.1798 83.8563C69.1984 84.8839 68.1686 85.8166 67.0906 86.6466C66.6482 86.9786 66.262 87.2948 65.9241 87.5952C62.4408 90.7175 58.708 93.5711 54.7259 96.1559C50.7357 98.7486 46.4318 100.622 41.806 101.784C39.8431 102.25 37.8722 102.48 35.8771 102.48C35.1369 102.48 34.4049 102.448 33.6969 102.377C31.2272 102.148 28.8621 101.578 26.6015 100.685C24.2042 99.6576 22.3136 98.298 20.9299 96.5985C19.5141 94.9386 18.5004 93.0494 17.889 90.923C17.2776 88.7967 16.98 86.5913 16.98 84.299C16.98 80.1807 17.704 76.1809 19.1601 72.2997C21.7264 65.233 25.3224 58.5378 29.9561 52.2378C34.5497 45.9299 39.5857 40.1912 45.0561 35.0137C48.9417 31.1957 53.1813 27.9074 57.7748 25.1566C62.3362 22.4374 67.3481 20.7063 72.8265 19.9791L72.8024 19.987ZM86.9289 83.1765C87.2346 82.4967 86.6072 81.7379 85.8751 81.9434C84.4431 82.3465 83.0836 82.9868 81.7723 83.8642C81.5712 83.967 81.3459 84.0776 81.1126 84.212C76.2777 86.8996 71.8933 90.2037 67.9353 94.1165L67.4285 94.6145C66.6884 95.3812 65.892 96.1085 65.0473 96.8041C64.2026 97.4997 63.3096 97.8475 62.3603 97.8475C61.4835 97.8475 60.5905 97.3811 59.6734 96.4563C58.9976 95.6579 58.6598 94.7963 58.6598 93.8635C58.6598 93.1996 58.7804 92.5198 59.0137 91.8242L59.7699 89.8796C59.7699 89.8796 59.786 89.8006 59.8182 89.7294C62.1109 84.3543 64.8864 79.24 68.1284 74.3945C74.5159 64.1027 81.7401 54.4748 89.817 45.5189C91.9489 43.1317 94.2899 40.8394 96.8642 38.6498C99.4224 36.4681 102.19 34.7291 105.182 33.4406C105.207 33.4327 105.239 33.4169 105.263 33.409C106.059 33.1165 106.872 32.8557 107.708 32.6265C108.553 32.3972 109.398 32.2787 110.243 32.2787C110.814 32.2787 111.377 32.3419 111.916 32.4763C113.501 32.8715 114.667 33.6541 115.415 34.816C116.123 35.978 116.477 37.2586 116.477 38.6498C116.477 39.6141 116.308 40.5785 115.97 41.535C114.482 45.4873 112.238 49.1392 109.229 52.4908C106.22 55.8423 103.131 58.8935 99.9534 61.6522C96.1723 65.1382 91.981 68.1103 87.3875 70.5607L86.3739 71.0587C85.0545 71.7543 83.703 72.3235 82.3193 72.7503C81.9493 72.8847 81.5229 73.0033 81.0563 73.0981C80.0587 73.2878 79.1899 73.5961 78.4337 74.023C78.3533 74.0704 78.2889 74.1178 78.2245 74.181C77.3557 75.0268 76.6478 76.0782 76.0927 77.3271L75.8433 77.7776C77.7016 76.6157 79.7289 75.5564 81.9251 74.5921C84.0891 73.6277 86.3015 73.1455 88.562 73.1455C88.8355 73.1455 89.1171 73.1613 89.4228 73.193C91.1444 73.2957 92.6648 73.8411 93.9842 74.8371C95.2713 75.8331 96.0275 77.2085 96.2608 78.9712C96.293 79.3032 96.3091 79.651 96.3091 80.0147C96.3091 81.2083 96.1241 82.3386 95.754 83.3978C95.3518 84.4887 94.8932 85.5716 94.3864 86.6308L93.9842 87.524C93.952 87.6268 93.8796 87.7533 93.7831 87.9193C93.3406 88.52 93.1234 89.0813 93.1234 89.6109C93.1234 89.9112 93.2601 90.1405 93.5256 90.3065C93.8635 90.4725 94.2175 90.5594 94.5875 90.5594C95.4322 90.5594 96.3413 90.3302 97.3227 89.8638C98.272 89.437 99.1167 89.018 99.8568 88.6228L100.364 88.3224C104.957 85.5321 109.012 82.1489 112.527 78.165C112.801 77.8646 113.066 77.5484 113.34 77.2164C113.983 76.4497 114.675 75.7383 115.415 75.0743C116.123 74.4419 116.984 74.1257 117.998 74.1257C118.303 74.1257 118.641 74.1731 119.011 74.2759C119.92 74.5051 120.636 74.9873 121.143 75.7224C121.618 76.4497 121.851 77.2638 121.851 78.165C121.851 78.5602 121.803 78.9633 121.698 79.3586C121.36 80.4573 120.765 81.5007 119.928 82.4967C119.084 83.4927 118.207 84.4096 117.29 85.2317L116.381 86.1249C113.541 89.0101 110.387 91.6186 106.904 93.9426C103.421 96.2982 99.6235 97.8396 95.5046 98.5747C94.9978 98.6379 94.491 98.6775 93.9842 98.6775C91.4179 98.6775 89.2378 97.8159 87.4438 96.0847C85.6498 94.3615 84.7569 92.2352 84.7569 89.7136C84.7569 89.3974 84.773 89.0813 84.8051 88.773C84.8051 88.7413 84.8051 88.7018 84.8212 88.6702C85.0947 87.0735 85.6418 85.5558 86.4704 84.1171C86.4784 84.1013 86.4865 84.0855 86.4945 84.0697C86.6393 83.7693 86.7841 83.4611 86.9209 83.1607L86.9289 83.1765ZM104.676 44.9498C105.255 44.1514 104.241 43.1475 103.421 43.7087C102.021 44.6652 100.685 45.7877 99.4063 47.0761C97.2101 49.2973 95.215 51.5264 93.4291 53.7476C93.1556 54.048 92.8901 54.3642 92.6166 54.6962C92.2465 55.1309 91.8362 55.5736 91.4018 56.0399C91.3857 56.0558 91.3696 56.0716 91.3616 56.0874C90.5974 56.8936 91.7558 58.0635 92.6246 57.3679C95.5851 54.9965 98.3203 52.3801 100.83 49.5265L101.136 49.1313C102.15 48.0721 103.147 46.9259 104.129 45.6928C104.322 45.4478 104.507 45.2106 104.684 44.9656L104.676 44.9498ZM117.789 90.0219C117.748 90.5989 118.247 91.0811 118.826 90.9863C122.117 90.4488 125.27 89.2235 128.287 87.3027C131.593 85.1764 134.634 82.9552 137.41 80.6312C137.981 80.1332 138.592 79.572 139.236 78.9396C140.249 77.8804 141.344 76.8844 142.526 75.9517C143.677 75.0585 144.875 74.6079 146.122 74.6079H146.524C147.675 74.7739 148.536 75.2245 149.107 75.9517C149.678 76.6789 149.967 77.5089 149.967 78.4416C149.967 79.6036 149.541 80.7024 148.704 81.73C146.476 84.0539 144.006 86.1645 141.303 88.0536C141.03 88.2829 140.748 88.5042 140.443 88.7018C137.908 90.6622 135.254 92.504 132.486 94.2272C129.679 95.9899 126.726 97.3337 123.621 98.2585C121.763 98.8593 119.856 99.1517 117.893 99.1517C116.775 99.1517 115.697 98.9857 114.651 98.6537C113.605 98.3534 112.672 97.8238 111.868 97.057C110.959 96.1638 110.331 95.1125 109.993 93.9189C109.623 92.7569 109.438 91.5633 109.438 90.3302C109.438 89.0971 109.559 87.9114 109.792 86.7415C110.669 82.7576 112.374 78.9396 114.909 75.2877C117.41 71.6358 120.113 68.4186 123.018 65.6282C123.693 64.9326 124.619 64.1817 125.801 63.3912C126.984 62.6324 128.094 62.2451 129.148 62.2451C129.759 62.2451 130.298 62.4427 130.773 62.8458C131.247 63.2411 131.601 63.905 131.835 64.8378C131.899 65.1065 131.939 65.3674 131.939 65.6362C131.939 66.6954 131.585 67.6755 130.877 68.5767C130.137 69.4699 129.325 70.3394 128.448 71.1694C127.772 71.8018 127.185 72.4183 126.678 73.0112C125.294 74.6395 123.927 76.4339 122.575 78.3863C121.224 80.3783 120.089 82.4493 119.18 84.6072C118.392 86.4016 117.933 88.2038 117.805 90.014L117.789 90.0219ZM138.834 48.412C139.139 48.3488 139.421 48.3092 139.694 48.3092C140.676 48.3092 141.488 48.657 142.124 49.3526C142.735 50.0799 143.033 50.9494 143.033 51.9454V52.2932C142.896 53.4551 142.389 54.5697 141.512 55.6289C140.603 56.7276 139.566 57.4233 138.423 57.7236C138.118 57.7869 137.812 57.8185 137.514 57.8185C136.501 57.8185 135.624 57.4865 134.876 56.8225C134.135 56.1585 133.757 55.3285 133.757 54.3325C133.757 54.1665 133.773 54.0164 133.806 53.882C133.975 52.7516 134.586 51.6213 135.632 50.4988C136.645 49.4001 137.707 48.7045 138.826 48.4041L138.834 48.412ZM161.327 69.4304C161.142 68.8612 160.45 68.6478 159.951 68.9798C157.521 70.6082 155.325 72.5843 153.37 74.9004C151.11 77.6196 149.284 80.5126 147.9 83.5638C147.594 84.2278 147.329 84.955 147.087 85.7534C146.814 86.5834 146.685 87.3659 146.685 88.0932C146.685 88.8915 146.902 89.5713 147.345 90.1326C147.787 90.6938 148.592 91.01 149.774 91.0811H150.233C151.584 91.0811 152.92 90.8519 154.239 90.3855C155.526 89.9191 156.741 89.3579 157.892 88.6939C162.887 85.7771 167.4 82.1884 171.423 77.9357L172.943 76.339C173.925 75.2086 174.987 74.1969 176.137 73.3036C176.877 72.8056 177.657 72.5527 178.47 72.5527C179.419 72.5527 180.28 72.8531 181.052 73.4459C181.833 74.0783 182.315 74.9241 182.525 75.9833C182.557 76.1493 182.573 76.3153 182.573 76.4813C182.573 77.3745 182.299 78.1887 181.76 78.9238C181.221 79.6906 180.626 80.3704 179.99 80.9632C179.347 81.5956 178.703 82.2438 178.068 82.9077C176.95 84.1013 175.767 85.2633 174.52 86.3937C173.812 86.9944 173.104 87.6031 172.388 88.2355C171.375 89.1682 170.329 90.0614 169.243 90.923C167.787 92.085 166.306 93.16 164.786 94.156C162.726 95.4524 160.329 96.6143 157.594 97.642C154.827 98.6696 152.107 99.1834 149.437 99.1834C147.272 99.1834 145.302 98.7012 143.508 97.7368C141.681 96.8041 140.249 95.1994 139.204 92.9071C138.528 91.3104 138.19 89.6899 138.19 88.0299C138.19 85.4767 138.801 82.9156 140.016 80.3625C141.231 77.8093 142.687 75.3984 144.376 73.1455C146.066 70.9243 147.707 68.9482 149.292 67.2171C150.949 65.3279 152.872 63.7469 155.068 62.4901C156.146 61.8577 157.361 61.2965 158.72 60.7985C160.072 60.3321 161.407 60.1029 162.726 60.1029C163.941 60.1029 165.059 60.3875 166.073 60.9487C167.087 61.5099 167.883 62.4743 168.454 63.8339C168.792 64.6323 168.961 65.4306 168.961 66.2211V66.4187C168.961 67.2803 168.792 68.1972 168.454 69.1537C168.084 70.1181 167.545 70.8611 166.829 71.3907C166.121 71.8255 165.446 72.0389 164.802 72.0389C163.821 72.0389 162.976 71.6595 162.268 70.8927C161.842 70.458 161.536 69.96 161.359 69.3988L161.327 69.4304ZM193.747 83.1765C194.053 82.4967 193.425 81.7379 192.693 81.9434C191.261 82.3465 189.902 82.9868 188.59 83.8642C188.389 83.967 188.164 84.0776 187.931 84.212C183.096 86.8996 178.711 90.2037 174.753 94.1165L174.246 94.6145C173.506 95.3812 172.71 96.1085 171.865 96.8041C171.021 97.4997 170.128 97.8475 169.178 97.8475C168.301 97.8475 167.408 97.3811 166.491 96.4563C165.816 95.6579 165.478 94.7963 165.478 93.8635C165.478 93.1996 165.598 92.5198 165.832 91.8242L166.588 89.8796C166.588 89.8796 166.604 89.8006 166.636 89.7294C168.929 84.3543 171.704 79.24 174.946 74.3945C181.334 64.1027 188.558 54.4748 196.635 45.5189C198.767 43.1317 201.108 40.8394 203.682 38.6498C206.24 36.4681 209.008 34.7291 212 33.4406C212.025 33.4327 212.057 33.4169 212.081 33.409C212.877 33.1165 213.69 32.8557 214.526 32.6265C215.371 32.3972 216.216 32.2787 217.061 32.2787C217.632 32.2787 218.195 32.3419 218.734 32.4763C220.319 32.8715 221.485 33.6541 222.233 34.816C222.941 35.978 223.295 37.2586 223.295 38.6498C223.295 39.6141 223.126 40.5785 222.788 41.535C221.3 45.4873 219.056 49.1392 216.047 52.4908C213.038 55.8423 209.949 58.8935 206.771 61.6522C202.99 65.1382 198.799 68.1103 194.205 70.5607L193.192 71.0587C191.873 71.7543 190.521 72.3235 189.137 72.7503C188.767 72.8847 188.341 73.0033 187.874 73.0981C186.877 73.2878 186.008 73.5961 185.252 74.023C185.171 74.0704 185.107 74.1178 185.043 74.181C184.174 75.0268 183.466 76.0782 182.911 77.3271L182.661 77.7776C184.52 76.6157 186.547 75.5564 188.743 74.5921C190.907 73.6277 193.119 73.1455 195.38 73.1455C195.654 73.1455 195.935 73.1613 196.241 73.193C197.962 73.2957 199.483 73.8411 200.802 74.8371C202.089 75.8331 202.846 77.2085 203.079 78.9712C203.111 79.3032 203.127 79.651 203.127 80.0147C203.127 81.2083 202.942 82.3386 202.572 83.3978C202.17 84.4887 201.711 85.5716 201.204 86.6308L200.802 87.524C200.77 87.6268 200.698 87.7533 200.601 87.9193C200.159 88.52 199.941 89.0813 199.941 89.6109C199.941 89.9112 200.078 90.1405 200.344 90.3065C200.681 90.4725 201.035 90.5594 201.406 90.5594C202.25 90.5594 203.159 90.3302 204.141 89.8638C205.09 89.437 205.935 89.018 206.675 88.6228L207.182 88.3224C211.775 85.5321 215.83 82.1489 219.345 78.165C219.619 77.8646 219.884 77.5484 220.158 77.2164C220.801 76.4497 221.493 75.7383 222.233 75.0743C222.941 74.4419 223.802 74.1257 224.816 74.1257C225.121 74.1257 225.459 74.1731 225.829 74.2759C226.738 74.5051 227.454 74.9873 227.961 75.7224C228.436 76.4497 228.669 77.2638 228.669 78.165C228.669 78.5602 228.621 78.9633 228.516 79.3586C228.178 80.4573 227.583 81.5007 226.746 82.4967C225.902 83.4927 225.025 84.4096 224.108 85.2317L223.199 86.1249C220.359 89.0101 217.205 91.6186 213.722 93.9426C210.239 96.2982 206.442 97.8396 202.323 98.5747C201.816 98.6379 201.309 98.6775 200.802 98.6775C198.236 98.6775 196.056 97.8159 194.262 96.0847C192.468 94.3615 191.575 92.2352 191.575 89.7136C191.575 89.3974 191.591 89.0813 191.623 88.773C191.623 88.7413 191.623 88.7018 191.639 88.6702C191.913 87.0735 192.46 85.5558 193.288 84.1171C193.296 84.1013 193.304 84.0855 193.313 84.0697C193.457 83.7693 193.602 83.4611 193.739 83.1607L193.747 83.1765ZM211.494 44.9498C212.073 44.1514 211.059 43.1475 210.239 43.7087C208.839 44.6652 207.503 45.7877 206.224 47.0761C204.028 49.2973 202.033 51.5264 200.247 53.7476C199.974 54.048 199.708 54.3642 199.435 54.6962C199.064 55.1309 198.654 55.5736 198.22 56.0399C198.204 56.0558 198.188 56.0716 198.18 56.0874C197.415 56.8936 198.574 58.0635 199.443 57.3679C202.403 54.9965 205.138 52.3801 207.648 49.5265L207.954 49.1313C208.968 48.0721 209.965 46.9259 210.947 45.6928C211.14 45.4478 211.325 45.2106 211.502 44.9656L211.494 44.9498ZM224.607 90.0219C224.566 90.5989 225.065 91.0811 225.644 90.9863C228.935 90.4488 232.088 89.2235 235.105 87.3027C238.411 85.1764 241.452 82.9552 244.228 80.6312C244.799 80.1332 245.41 79.572 246.054 78.9396C247.067 77.8804 248.162 76.8844 249.344 75.9517C250.494 75.0585 251.693 74.6079 252.94 74.6079H253.342C254.493 74.7739 255.354 75.2245 255.925 75.9517C256.496 76.6789 256.785 77.5089 256.785 78.4416C256.785 79.6036 256.359 80.7024 255.522 81.73C253.294 84.0539 250.824 86.1645 248.121 88.0536C247.848 88.2829 247.566 88.5042 247.261 88.7018C244.726 90.6622 242.072 92.504 239.304 94.2272C236.497 95.9899 233.544 97.3337 230.439 98.2585C228.581 98.8593 226.674 99.1517 224.711 99.1517C223.593 99.1517 222.515 98.9857 221.469 98.6537C220.423 98.3534 219.49 97.8238 218.686 97.057C217.777 96.1638 217.149 95.1125 216.811 93.9189C216.441 92.7569 216.256 91.5633 216.256 90.3302C216.256 89.0971 216.377 87.9114 216.61 86.7415C217.487 82.7576 219.192 78.9396 221.727 75.2877C224.228 71.6358 226.931 68.4186 229.836 65.6282C230.511 64.9326 231.437 64.1817 232.619 63.3912C233.802 62.6324 234.912 62.2451 235.966 62.2451C236.577 62.2451 237.116 62.4427 237.591 62.8458C238.065 63.2411 238.419 63.905 238.653 64.8378C238.717 65.1065 238.757 65.3674 238.757 65.6362C238.757 66.6954 238.403 67.6755 237.695 68.5767C236.955 69.4699 236.143 70.3394 235.266 71.1694C234.59 71.8018 234.003 72.4183 233.496 73.0112C232.112 74.6395 230.745 76.4339 229.393 78.3863C228.042 80.3783 226.907 82.4493 225.998 84.6072C225.21 86.4016 224.751 88.2038 224.623 90.014L224.607 90.0219ZM245.644 48.412C245.949 48.3488 246.231 48.3092 246.504 48.3092C247.486 48.3092 248.29 48.657 248.934 49.3526C249.545 50.0799 249.843 50.9494 249.843 51.9454V52.2932C249.706 53.4551 249.199 54.5697 248.322 55.6289C247.413 56.7276 246.376 57.4233 245.233 57.7236C244.928 57.7869 244.622 57.8185 244.324 57.8185C243.311 57.8185 242.434 57.4865 241.686 56.8225C240.945 56.1585 240.567 55.3285 240.567 54.3325C240.567 54.1665 240.583 54.0164 240.616 53.882C240.785 52.7516 241.396 51.6213 242.442 50.4988C243.455 49.4001 244.517 48.7045 245.635 48.4041L245.644 48.412ZM293.228 29.1484C293.461 29.1168 293.703 29.101 293.936 29.101C295.658 29.101 297.146 29.7176 298.393 30.9428C299.608 32.2075 300.251 33.7173 300.316 35.4721V35.6223C300.316 38.0806 299.777 40.4046 298.691 42.5942C297.613 44.7838 296.341 46.8627 294.893 48.8151C289.013 57.0834 281.7 63.8339 272.955 69.0826C270.252 70.6793 267.413 71.9361 264.444 72.8689C264.002 73.0033 263.495 73.0981 262.924 73.1693C261.797 73.2325 260.888 73.525 260.188 74.0388C260.116 74.0941 260.06 74.1494 260.003 74.2206C258.62 75.8963 257.445 77.8646 256.488 80.149C255.506 82.5046 254.734 84.7495 254.155 86.868L254.05 87.2632C253.68 88.2592 253.495 89.2551 253.495 90.2511C253.495 90.8124 253.6 91.3341 253.801 91.7925C254.139 92.1878 254.541 92.3933 255.016 92.3933C255.386 92.3933 255.756 92.33 256.134 92.1957C258.024 91.4289 259.786 90.4329 261.403 89.2077C266.198 85.8878 270.727 82.2517 274.983 78.3073L275.184 78.1096C275.956 77.3429 276.825 76.6157 277.766 75.9201C278.707 75.2245 279.745 74.8767 280.855 74.8767C281.258 74.8767 281.668 74.9399 282.07 75.0743C282.947 75.3746 283.623 75.8726 284.097 76.5682C284.572 77.2638 284.805 78.0306 284.805 78.8606C284.805 79.5325 284.628 80.1886 284.282 80.8367C284.258 80.8842 284.234 80.9237 284.202 80.9632C283.534 81.9355 282.681 82.7734 281.66 83.4927C281.153 83.8879 280.678 84.2911 280.244 84.6863C275.715 88.939 270.856 92.8043 265.651 96.2903C264.163 97.2862 262.594 98.2032 260.937 99.0253C259.247 99.8552 257.51 100.369 255.716 100.567C255.41 100.598 255.088 100.614 254.75 100.614C253.841 100.614 252.94 100.511 252.063 100.314C249.561 99.7525 247.824 98.6221 246.842 96.9305C245.861 95.2706 245.37 93.3656 245.37 91.2076C245.37 88.852 245.74 86.4648 246.488 84.0381C247.196 81.6509 247.936 79.6036 248.717 77.912C251.894 70.8453 255.909 64.0552 260.776 57.5497C265.603 51.0442 270.807 45.0841 276.382 39.6774C278.579 37.385 281.129 35.1797 284.033 33.0533C286.905 30.9586 289.962 29.6701 293.204 29.1721L293.228 29.1484ZM290.421 40.6892C290.855 39.875 289.882 39.045 289.101 39.5509C288.627 39.8513 288.16 40.1912 287.701 40.5548C286.454 41.5508 285.272 42.5626 284.154 43.5902C283.953 43.7878 283.727 43.9854 283.494 44.1909C280.485 46.9101 277.517 49.8981 274.572 53.1548C272.432 55.5182 270.534 57.945 268.885 60.4349C268.346 61.2412 269.343 62.1818 270.164 61.6522C271.379 60.8618 272.545 59.9527 273.655 58.933L274.975 57.8343C278.321 55.21 281.491 52.2615 284.5 48.9732C286.865 46.4121 288.836 43.6534 290.412 40.6971L290.421 40.6892ZM288.554 70.6951C288.997 70.8848 289.528 70.7346 289.737 70.2999C290.879 67.9601 292.77 65.9444 295.4 64.2449C298.337 62.3874 301.345 61.4546 304.418 61.4546C306.108 61.4546 307.693 61.8182 309.181 62.5533C310.637 63.2806 311.836 64.4821 312.777 66.142C313.549 67.6044 313.943 69.1458 313.943 70.7742C313.943 73.0981 313.388 75.4379 312.27 77.7935C311.586 79.24 310.862 80.5601 310.106 81.7616C309.655 82.473 310.38 83.3583 311.176 83.0658C313.67 82.141 315.995 80.8842 318.151 79.2953C318.625 78.9633 319.092 78.5997 319.567 78.1966C320.918 76.9319 322.406 76.0861 324.023 75.6592C324.289 75.6276 324.546 75.6118 324.78 75.6118C325.962 75.6118 326.871 75.9912 327.515 76.7579C328.126 77.5563 328.424 78.4653 328.424 79.493C328.424 80.6865 327.965 81.8011 327.056 82.8287C324.691 85.1527 321.908 87.113 318.698 88.7018C315.504 90.3223 312.294 91.4605 309.06 92.1324C309.028 92.1324 309.004 92.1403 308.972 92.1482C307.87 92.3142 306.687 92.3933 305.416 92.3933H305.014C303.453 92.3933 302.045 92.5672 300.782 92.9229C300.734 92.9387 300.686 92.9545 300.637 92.9703C299.583 93.4051 298.538 94.0533 297.516 94.9307C296.776 95.563 296.012 96.0927 295.239 96.5274C293.751 97.3258 292.166 97.974 290.477 98.4719C288.787 98.9699 287.098 99.2229 285.409 99.2229C284.025 99.2229 282.673 99.0095 281.354 98.5747C280.003 98.1795 278.756 97.4918 277.605 96.5353C276.318 95.4366 275.409 94.1955 274.87 92.8043C274.299 91.4447 274.009 90.014 274.009 88.52C274.009 86.1644 274.532 83.8089 275.578 81.4533C276.592 79.1293 277.79 77.0899 279.174 75.3272C280.083 74.102 281.185 72.9558 282.464 71.8887C283.743 70.8295 285.135 70.292 286.623 70.292C287.243 70.292 287.878 70.4343 288.538 70.7188L288.554 70.6951ZM286.744 78.9396V78.4891C285.457 79.4218 284.427 80.7261 283.655 82.4256C282.875 84.1171 282.488 85.7297 282.488 87.2553V88.0062C282.488 88.5042 282.553 88.9864 282.69 89.4528C282.794 89.9508 283.06 90.3697 283.502 90.6938C284.113 91.0574 284.781 91.2392 285.529 91.2392C286.277 91.2392 287.114 91.089 287.959 90.7887C288.804 90.5199 289.584 90.2432 290.292 89.9429L291 89.6425C289.648 87.8165 288.602 86.1407 287.854 84.6151C287.114 83.1212 286.736 81.232 286.736 78.9396H286.744ZM302.954 69.7782C300.863 70.1734 299.117 71.2563 297.733 73.0112C296.317 74.8055 295.4 76.6947 294.998 78.6867C294.934 78.9554 294.893 79.2716 294.893 79.6352C294.893 80.4968 295.078 81.4296 295.448 82.4256C295.819 83.4215 296.462 83.9195 297.371 83.9195C297.54 83.9195 297.709 83.9037 297.878 83.8721C298.691 83.5401 299.382 82.8919 299.954 81.9276C300.09 81.7616 300.211 81.6114 300.307 81.477C302.367 78.9238 303.992 76.1335 305.175 73.1139C305.408 72.4499 305.529 71.8729 305.529 71.367C305.529 70.8374 305.392 70.4184 305.126 70.126C304.821 69.8572 304.346 69.7307 303.71 69.7307C303.477 69.7307 303.22 69.7466 302.954 69.7782Z"/>
</mask>
<path d="M72.8024 19.987C73.277 19.9237 73.7275 19.8921 74.17 19.8921C76.0283 19.8921 77.5971 20.3269 78.8842 21.1885C80.1311 22.0817 81.0804 23.2279 81.724 24.627C82.3354 26.0577 82.6331 27.5675 82.6331 29.1563C82.6331 31.0139 82.2067 32.8557 81.37 34.6817C81.2654 34.8477 81.1689 35.0295 81.0643 35.2271C80.5897 36.2547 80.0024 37.2349 79.2945 38.1676C78.5866 39.132 77.6373 39.709 76.4547 39.9066C76.2536 39.9382 76.0686 39.954 75.8996 39.954C74.886 39.954 74.0735 39.5588 73.4701 38.7604C72.8587 37.9937 72.5611 37.1479 72.5611 36.2231C72.5611 35.9543 72.5932 35.7093 72.6656 35.4721C72.8024 34.8714 73.1242 34.1125 73.631 33.1798C73.9367 32.5474 74.2183 31.8992 74.4918 31.2352C74.7653 30.5713 74.894 29.9863 74.894 29.4883C74.894 29.0931 74.7573 28.7611 74.4918 28.4923C74.2183 28.2236 73.7356 28.0971 73.0196 28.0971H72.6174C72.0221 28.1604 71.4267 28.2394 70.8395 28.3422C70.8073 28.3422 70.7832 28.3501 70.759 28.358C67.7986 29.022 65.0151 30.1839 62.3925 31.836C59.7217 33.496 57.26 35.2903 54.9913 37.2111C44.316 46.1434 35.8529 56.7751 29.6022 69.13C28.4839 71.2247 27.4381 73.5803 26.4567 76.1967C25.443 78.8527 24.9362 81.477 24.9362 84.0618C24.9362 86.3542 25.5074 88.4726 26.6578 90.4329C27.6071 91.8637 28.9023 92.8755 30.5595 93.4683C32.2167 94.0691 33.89 94.3615 35.5794 94.3615C36.3919 94.3615 37.1803 94.3141 37.9606 94.2113C42.3209 93.5157 46.4076 91.9032 50.2208 89.3816C54.0019 86.8917 57.4852 84.1883 60.6629 81.2636C60.7996 81.1292 60.9686 80.979 61.1697 80.813C62.0788 79.9198 63.2131 78.9554 64.5646 77.9278C65.8839 76.9319 67.1469 76.4339 68.3617 76.4339C68.9731 76.4339 69.5443 76.6315 70.0833 77.0346C70.5901 77.4298 71.0325 78.1096 71.4026 79.074C71.5715 79.5404 71.652 79.9909 71.652 80.4178C71.652 81.6825 71.1613 82.8208 70.1798 83.8563C69.1984 84.8839 68.1686 85.8166 67.0906 86.6466C66.6482 86.9786 66.262 87.2948 65.9241 87.5952C62.4408 90.7175 58.708 93.5711 54.7259 96.1559C50.7357 98.7486 46.4318 100.622 41.806 101.784C39.8431 102.25 37.8722 102.48 35.8771 102.48C35.1369 102.48 34.4049 102.448 33.6969 102.377C31.2272 102.148 28.8621 101.578 26.6015 100.685C24.2042 99.6576 22.3136 98.298 20.9299 96.5985C19.5141 94.9386 18.5004 93.0494 17.889 90.923C17.2776 88.7967 16.98 86.5913 16.98 84.299C16.98 80.1807 17.704 76.1809 19.1601 72.2997C21.7264 65.233 25.3224 58.5378 29.9561 52.2378C34.5497 45.9299 39.5857 40.1912 45.0561 35.0137C48.9417 31.1957 53.1813 27.9074 57.7748 25.1566C62.3362 22.4374 67.3481 20.7063 72.8265 19.9791L72.8024 19.987ZM86.9289 83.1765C87.2346 82.4967 86.6072 81.7379 85.8751 81.9434C84.4431 82.3465 83.0836 82.9868 81.7723 83.8642C81.5712 83.967 81.3459 84.0776 81.1126 84.212C76.2777 86.8996 71.8933 90.2037 67.9353 94.1165L67.4285 94.6145C66.6884 95.3812 65.892 96.1085 65.0473 96.8041C64.2026 97.4997 63.3096 97.8475 62.3603 97.8475C61.4835 97.8475 60.5905 97.3811 59.6734 96.4563C58.9976 95.6579 58.6598 94.7963 58.6598 93.8635C58.6598 93.1996 58.7804 92.5198 59.0137 91.8242L59.7699 89.8796C59.7699 89.8796 59.786 89.8006 59.8182 89.7294C62.1109 84.3543 64.8864 79.24 68.1284 74.3945C74.5159 64.1027 81.7401 54.4748 89.817 45.5189C91.9489 43.1317 94.2899 40.8394 96.8642 38.6498C99.4224 36.4681 102.19 34.7291 105.182 33.4406C105.207 33.4327 105.239 33.4169 105.263 33.409C106.059 33.1165 106.872 32.8557 107.708 32.6265C108.553 32.3972 109.398 32.2787 110.243 32.2787C110.814 32.2787 111.377 32.3419 111.916 32.4763C113.501 32.8715 114.667 33.6541 115.415 34.816C116.123 35.978 116.477 37.2586 116.477 38.6498C116.477 39.6141 116.308 40.5785 115.97 41.535C114.482 45.4873 112.238 49.1392 109.229 52.4908C106.22 55.8423 103.131 58.8935 99.9534 61.6522C96.1723 65.1382 91.981 68.1103 87.3875 70.5607L86.3739 71.0587C85.0545 71.7543 83.703 72.3235 82.3193 72.7503C81.9493 72.8847 81.5229 73.0033 81.0563 73.0981C80.0587 73.2878 79.1899 73.5961 78.4337 74.023C78.3533 74.0704 78.2889 74.1178 78.2245 74.181C77.3557 75.0268 76.6478 76.0782 76.0927 77.3271L75.8433 77.7776C77.7016 76.6157 79.7289 75.5564 81.9251 74.5921C84.0891 73.6277 86.3015 73.1455 88.562 73.1455C88.8355 73.1455 89.1171 73.1613 89.4228 73.193C91.1444 73.2957 92.6648 73.8411 93.9842 74.8371C95.2713 75.8331 96.0275 77.2085 96.2608 78.9712C96.293 79.3032 96.3091 79.651 96.3091 80.0147C96.3091 81.2083 96.1241 82.3386 95.754 83.3978C95.3518 84.4887 94.8932 85.5716 94.3864 86.6308L93.9842 87.524C93.952 87.6268 93.8796 87.7533 93.7831 87.9193C93.3406 88.52 93.1234 89.0813 93.1234 89.6109C93.1234 89.9112 93.2601 90.1405 93.5256 90.3065C93.8635 90.4725 94.2175 90.5594 94.5875 90.5594C95.4322 90.5594 96.3413 90.3302 97.3227 89.8638C98.272 89.437 99.1167 89.018 99.8568 88.6228L100.364 88.3224C104.957 85.5321 109.012 82.1489 112.527 78.165C112.801 77.8646 113.066 77.5484 113.34 77.2164C113.983 76.4497 114.675 75.7383 115.415 75.0743C116.123 74.4419 116.984 74.1257 117.998 74.1257C118.303 74.1257 118.641 74.1731 119.011 74.2759C119.92 74.5051 120.636 74.9873 121.143 75.7224C121.618 76.4497 121.851 77.2638 121.851 78.165C121.851 78.5602 121.803 78.9633 121.698 79.3586C121.36 80.4573 120.765 81.5007 119.928 82.4967C119.084 83.4927 118.207 84.4096 117.29 85.2317L116.381 86.1249C113.541 89.0101 110.387 91.6186 106.904 93.9426C103.421 96.2982 99.6235 97.8396 95.5046 98.5747C94.9978 98.6379 94.491 98.6775 93.9842 98.6775C91.4179 98.6775 89.2378 97.8159 87.4438 96.0847C85.6498 94.3615 84.7569 92.2352 84.7569 89.7136C84.7569 89.3974 84.773 89.0813 84.8051 88.773C84.8051 88.7413 84.8051 88.7018 84.8212 88.6702C85.0947 87.0735 85.6418 85.5558 86.4704 84.1171C86.4784 84.1013 86.4865 84.0855 86.4945 84.0697C86.6393 83.7693 86.7841 83.4611 86.9209 83.1607L86.9289 83.1765ZM104.676 44.9498C105.255 44.1514 104.241 43.1475 103.421 43.7087C102.021 44.6652 100.685 45.7877 99.4063 47.0761C97.2101 49.2973 95.215 51.5264 93.4291 53.7476C93.1556 54.048 92.8901 54.3642 92.6166 54.6962C92.2465 55.1309 91.8362 55.5736 91.4018 56.0399C91.3857 56.0558 91.3696 56.0716 91.3616 56.0874C90.5974 56.8936 91.7558 58.0635 92.6246 57.3679C95.5851 54.9965 98.3203 52.3801 100.83 49.5265L101.136 49.1313C102.15 48.0721 103.147 46.9259 104.129 45.6928C104.322 45.4478 104.507 45.2106 104.684 44.9656L104.676 44.9498ZM117.789 90.0219C117.748 90.5989 118.247 91.0811 118.826 90.9863C122.117 90.4488 125.27 89.2235 128.287 87.3027C131.593 85.1764 134.634 82.9552 137.41 80.6312C137.981 80.1332 138.592 79.572 139.236 78.9396C140.249 77.8804 141.344 76.8844 142.526 75.9517C143.677 75.0585 144.875 74.6079 146.122 74.6079H146.524C147.675 74.7739 148.536 75.2245 149.107 75.9517C149.678 76.6789 149.967 77.5089 149.967 78.4416C149.967 79.6036 149.541 80.7024 148.704 81.73C146.476 84.0539 144.006 86.1645 141.303 88.0536C141.03 88.2829 140.748 88.5042 140.443 88.7018C137.908 90.6622 135.254 92.504 132.486 94.2272C129.679 95.9899 126.726 97.3337 123.621 98.2585C121.763 98.8593 119.856 99.1517 117.893 99.1517C116.775 99.1517 115.697 98.9857 114.651 98.6537C113.605 98.3534 112.672 97.8238 111.868 97.057C110.959 96.1638 110.331 95.1125 109.993 93.9189C109.623 92.7569 109.438 91.5633 109.438 90.3302C109.438 89.0971 109.559 87.9114 109.792 86.7415C110.669 82.7576 112.374 78.9396 114.909 75.2877C117.41 71.6358 120.113 68.4186 123.018 65.6282C123.693 64.9326 124.619 64.1817 125.801 63.3912C126.984 62.6324 128.094 62.2451 129.148 62.2451C129.759 62.2451 130.298 62.4427 130.773 62.8458C131.247 63.2411 131.601 63.905 131.835 64.8378C131.899 65.1065 131.939 65.3674 131.939 65.6362C131.939 66.6954 131.585 67.6755 130.877 68.5767C130.137 69.4699 129.325 70.3394 128.448 71.1694C127.772 71.8018 127.185 72.4183 126.678 73.0112C125.294 74.6395 123.927 76.4339 122.575 78.3863C121.224 80.3783 120.089 82.4493 119.18 84.6072C118.392 86.4016 117.933 88.2038 117.805 90.014L117.789 90.0219ZM138.834 48.412C139.139 48.3488 139.421 48.3092 139.694 48.3092C140.676 48.3092 141.488 48.657 142.124 49.3526C142.735 50.0799 143.033 50.9494 143.033 51.9454V52.2932C142.896 53.4551 142.389 54.5697 141.512 55.6289C140.603 56.7276 139.566 57.4233 138.423 57.7236C138.118 57.7869 137.812 57.8185 137.514 57.8185C136.501 57.8185 135.624 57.4865 134.876 56.8225C134.135 56.1585 133.757 55.3285 133.757 54.3325C133.757 54.1665 133.773 54.0164 133.806 53.882C133.975 52.7516 134.586 51.6213 135.632 50.4988C136.645 49.4001 137.707 48.7045 138.826 48.4041L138.834 48.412ZM161.327 69.4304C161.142 68.8612 160.45 68.6478 159.951 68.9798C157.521 70.6082 155.325 72.5843 153.37 74.9004C151.11 77.6196 149.284 80.5126 147.9 83.5638C147.594 84.2278 147.329 84.955 147.087 85.7534C146.814 86.5834 146.685 87.3659 146.685 88.0932C146.685 88.8915 146.902 89.5713 147.345 90.1326C147.787 90.6938 148.592 91.01 149.774 91.0811H150.233C151.584 91.0811 152.92 90.8519 154.239 90.3855C155.526 89.9191 156.741 89.3579 157.892 88.6939C162.887 85.7771 167.4 82.1884 171.423 77.9357L172.943 76.339C173.925 75.2086 174.987 74.1969 176.137 73.3036C176.877 72.8056 177.657 72.5527 178.47 72.5527C179.419 72.5527 180.28 72.8531 181.052 73.4459C181.833 74.0783 182.315 74.9241 182.525 75.9833C182.557 76.1493 182.573 76.3153 182.573 76.4813C182.573 77.3745 182.299 78.1887 181.76 78.9238C181.221 79.6906 180.626 80.3704 179.99 80.9632C179.347 81.5956 178.703 82.2438 178.068 82.9077C176.95 84.1013 175.767 85.2633 174.52 86.3937C173.812 86.9944 173.104 87.6031 172.388 88.2355C171.375 89.1682 170.329 90.0614 169.243 90.923C167.787 92.085 166.306 93.16 164.786 94.156C162.726 95.4524 160.329 96.6143 157.594 97.642C154.827 98.6696 152.107 99.1834 149.437 99.1834C147.272 99.1834 145.302 98.7012 143.508 97.7368C141.681 96.8041 140.249 95.1994 139.204 92.9071C138.528 91.3104 138.19 89.6899 138.19 88.0299C138.19 85.4767 138.801 82.9156 140.016 80.3625C141.231 77.8093 142.687 75.3984 144.376 73.1455C146.066 70.9243 147.707 68.9482 149.292 67.2171C150.949 65.3279 152.872 63.7469 155.068 62.4901C156.146 61.8577 157.361 61.2965 158.72 60.7985C160.072 60.3321 161.407 60.1029 162.726 60.1029C163.941 60.1029 165.059 60.3875 166.073 60.9487C167.087 61.5099 167.883 62.4743 168.454 63.8339C168.792 64.6323 168.961 65.4306 168.961 66.2211V66.4187C168.961 67.2803 168.792 68.1972 168.454 69.1537C168.084 70.1181 167.545 70.8611 166.829 71.3907C166.121 71.8255 165.446 72.0389 164.802 72.0389C163.821 72.0389 162.976 71.6595 162.268 70.8927C161.842 70.458 161.536 69.96 161.359 69.3988L161.327 69.4304ZM193.747 83.1765C194.053 82.4967 193.425 81.7379 192.693 81.9434C191.261 82.3465 189.902 82.9868 188.59 83.8642C188.389 83.967 188.164 84.0776 187.931 84.212C183.096 86.8996 178.711 90.2037 174.753 94.1165L174.246 94.6145C173.506 95.3812 172.71 96.1085 171.865 96.8041C171.021 97.4997 170.128 97.8475 169.178 97.8475C168.301 97.8475 167.408 97.3811 166.491 96.4563C165.816 95.6579 165.478 94.7963 165.478 93.8635C165.478 93.1996 165.598 92.5198 165.832 91.8242L166.588 89.8796C166.588 89.8796 166.604 89.8006 166.636 89.7294C168.929 84.3543 171.704 79.24 174.946 74.3945C181.334 64.1027 188.558 54.4748 196.635 45.5189C198.767 43.1317 201.108 40.8394 203.682 38.6498C206.24 36.4681 209.008 34.7291 212 33.4406C212.025 33.4327 212.057 33.4169 212.081 33.409C212.877 33.1165 213.69 32.8557 214.526 32.6265C215.371 32.3972 216.216 32.2787 217.061 32.2787C217.632 32.2787 218.195 32.3419 218.734 32.4763C220.319 32.8715 221.485 33.6541 222.233 34.816C222.941 35.978 223.295 37.2586 223.295 38.6498C223.295 39.6141 223.126 40.5785 222.788 41.535C221.3 45.4873 219.056 49.1392 216.047 52.4908C213.038 55.8423 209.949 58.8935 206.771 61.6522C202.99 65.1382 198.799 68.1103 194.205 70.5607L193.192 71.0587C191.873 71.7543 190.521 72.3235 189.137 72.7503C188.767 72.8847 188.341 73.0033 187.874 73.0981C186.877 73.2878 186.008 73.5961 185.252 74.023C185.171 74.0704 185.107 74.1178 185.043 74.181C184.174 75.0268 183.466 76.0782 182.911 77.3271L182.661 77.7776C184.52 76.6157 186.547 75.5564 188.743 74.5921C190.907 73.6277 193.119 73.1455 195.38 73.1455C195.654 73.1455 195.935 73.1613 196.241 73.193C197.962 73.2957 199.483 73.8411 200.802 74.8371C202.089 75.8331 202.846 77.2085 203.079 78.9712C203.111 79.3032 203.127 79.651 203.127 80.0147C203.127 81.2083 202.942 82.3386 202.572 83.3978C202.17 84.4887 201.711 85.5716 201.204 86.6308L200.802 87.524C200.77 87.6268 200.698 87.7533 200.601 87.9193C200.159 88.52 199.941 89.0813 199.941 89.6109C199.941 89.9112 200.078 90.1405 200.344 90.3065C200.681 90.4725 201.035 90.5594 201.406 90.5594C202.25 90.5594 203.159 90.3302 204.141 89.8638C205.09 89.437 205.935 89.018 206.675 88.6228L207.182 88.3224C211.775 85.5321 215.83 82.1489 219.345 78.165C219.619 77.8646 219.884 77.5484 220.158 77.2164C220.801 76.4497 221.493 75.7383 222.233 75.0743C222.941 74.4419 223.802 74.1257 224.816 74.1257C225.121 74.1257 225.459 74.1731 225.829 74.2759C226.738 74.5051 227.454 74.9873 227.961 75.7224C228.436 76.4497 228.669 77.2638 228.669 78.165C228.669 78.5602 228.621 78.9633 228.516 79.3586C228.178 80.4573 227.583 81.5007 226.746 82.4967C225.902 83.4927 225.025 84.4096 224.108 85.2317L223.199 86.1249C220.359 89.0101 217.205 91.6186 213.722 93.9426C210.239 96.2982 206.442 97.8396 202.323 98.5747C201.816 98.6379 201.309 98.6775 200.802 98.6775C198.236 98.6775 196.056 97.8159 194.262 96.0847C192.468 94.3615 191.575 92.2352 191.575 89.7136C191.575 89.3974 191.591 89.0813 191.623 88.773C191.623 88.7413 191.623 88.7018 191.639 88.6702C191.913 87.0735 192.46 85.5558 193.288 84.1171C193.296 84.1013 193.304 84.0855 193.313 84.0697C193.457 83.7693 193.602 83.4611 193.739 83.1607L193.747 83.1765ZM211.494 44.9498C212.073 44.1514 211.059 43.1475 210.239 43.7087C208.839 44.6652 207.503 45.7877 206.224 47.0761C204.028 49.2973 202.033 51.5264 200.247 53.7476C199.974 54.048 199.708 54.3642 199.435 54.6962C199.064 55.1309 198.654 55.5736 198.22 56.0399C198.204 56.0558 198.188 56.0716 198.18 56.0874C197.415 56.8936 198.574 58.0635 199.443 57.3679C202.403 54.9965 205.138 52.3801 207.648 49.5265L207.954 49.1313C208.968 48.0721 209.965 46.9259 210.947 45.6928C211.14 45.4478 211.325 45.2106 211.502 44.9656L211.494 44.9498ZM224.607 90.0219C224.566 90.5989 225.065 91.0811 225.644 90.9863C228.935 90.4488 232.088 89.2235 235.105 87.3027C238.411 85.1764 241.452 82.9552 244.228 80.6312C244.799 80.1332 245.41 79.572 246.054 78.9396C247.067 77.8804 248.162 76.8844 249.344 75.9517C250.494 75.0585 251.693 74.6079 252.94 74.6079H253.342C254.493 74.7739 255.354 75.2245 255.925 75.9517C256.496 76.6789 256.785 77.5089 256.785 78.4416C256.785 79.6036 256.359 80.7024 255.522 81.73C253.294 84.0539 250.824 86.1645 248.121 88.0536C247.848 88.2829 247.566 88.5042 247.261 88.7018C244.726 90.6622 242.072 92.504 239.304 94.2272C236.497 95.9899 233.544 97.3337 230.439 98.2585C228.581 98.8593 226.674 99.1517 224.711 99.1517C223.593 99.1517 222.515 98.9857 221.469 98.6537C220.423 98.3534 219.49 97.8238 218.686 97.057C217.777 96.1638 217.149 95.1125 216.811 93.9189C216.441 92.7569 216.256 91.5633 216.256 90.3302C216.256 89.0971 216.377 87.9114 216.61 86.7415C217.487 82.7576 219.192 78.9396 221.727 75.2877C224.228 71.6358 226.931 68.4186 229.836 65.6282C230.511 64.9326 231.437 64.1817 232.619 63.3912C233.802 62.6324 234.912 62.2451 235.966 62.2451C236.577 62.2451 237.116 62.4427 237.591 62.8458C238.065 63.2411 238.419 63.905 238.653 64.8378C238.717 65.1065 238.757 65.3674 238.757 65.6362C238.757 66.6954 238.403 67.6755 237.695 68.5767C236.955 69.4699 236.143 70.3394 235.266 71.1694C234.59 71.8018 234.003 72.4183 233.496 73.0112C232.112 74.6395 230.745 76.4339 229.393 78.3863C228.042 80.3783 226.907 82.4493 225.998 84.6072C225.21 86.4016 224.751 88.2038 224.623 90.014L224.607 90.0219ZM245.644 48.412C245.949 48.3488 246.231 48.3092 246.504 48.3092C247.486 48.3092 248.29 48.657 248.934 49.3526C249.545 50.0799 249.843 50.9494 249.843 51.9454V52.2932C249.706 53.4551 249.199 54.5697 248.322 55.6289C247.413 56.7276 246.376 57.4233 245.233 57.7236C244.928 57.7869 244.622 57.8185 244.324 57.8185C243.311 57.8185 242.434 57.4865 241.686 56.8225C240.945 56.1585 240.567 55.3285 240.567 54.3325C240.567 54.1665 240.583 54.0164 240.616 53.882C240.785 52.7516 241.396 51.6213 242.442 50.4988C243.455 49.4001 244.517 48.7045 245.635 48.4041L245.644 48.412ZM293.228 29.1484C293.461 29.1168 293.703 29.101 293.936 29.101C295.658 29.101 297.146 29.7176 298.393 30.9428C299.608 32.2075 300.251 33.7173 300.316 35.4721V35.6223C300.316 38.0806 299.777 40.4046 298.691 42.5942C297.613 44.7838 296.341 46.8627 294.893 48.8151C289.013 57.0834 281.7 63.8339 272.955 69.0826C270.252 70.6793 267.413 71.9361 264.444 72.8689C264.002 73.0033 263.495 73.0981 262.924 73.1693C261.797 73.2325 260.888 73.525 260.188 74.0388C260.116 74.0941 260.06 74.1494 260.003 74.2206C258.62 75.8963 257.445 77.8646 256.488 80.149C255.506 82.5046 254.734 84.7495 254.155 86.868L254.05 87.2632C253.68 88.2592 253.495 89.2551 253.495 90.2511C253.495 90.8124 253.6 91.3341 253.801 91.7925C254.139 92.1878 254.541 92.3933 255.016 92.3933C255.386 92.3933 255.756 92.33 256.134 92.1957C258.024 91.4289 259.786 90.4329 261.403 89.2077C266.198 85.8878 270.727 82.2517 274.983 78.3073L275.184 78.1096C275.956 77.3429 276.825 76.6157 277.766 75.9201C278.707 75.2245 279.745 74.8767 280.855 74.8767C281.258 74.8767 281.668 74.9399 282.07 75.0743C282.947 75.3746 283.623 75.8726 284.097 76.5682C284.572 77.2638 284.805 78.0306 284.805 78.8606C284.805 79.5325 284.628 80.1886 284.282 80.8367C284.258 80.8842 284.234 80.9237 284.202 80.9632C283.534 81.9355 282.681 82.7734 281.66 83.4927C281.153 83.8879 280.678 84.2911 280.244 84.6863C275.715 88.939 270.856 92.8043 265.651 96.2903C264.163 97.2862 262.594 98.2032 260.937 99.0253C259.247 99.8552 257.51 100.369 255.716 100.567C255.41 100.598 255.088 100.614 254.75 100.614C253.841 100.614 252.94 100.511 252.063 100.314C249.561 99.7525 247.824 98.6221 246.842 96.9305C245.861 95.2706 245.37 93.3656 245.37 91.2076C245.37 88.852 245.74 86.4648 246.488 84.0381C247.196 81.6509 247.936 79.6036 248.717 77.912C251.894 70.8453 255.909 64.0552 260.776 57.5497C265.603 51.0442 270.807 45.0841 276.382 39.6774C278.579 37.385 281.129 35.1797 284.033 33.0533C286.905 30.9586 289.962 29.6701 293.204 29.1721L293.228 29.1484ZM290.421 40.6892C290.855 39.875 289.882 39.045 289.101 39.5509C288.627 39.8513 288.16 40.1912 287.701 40.5548C286.454 41.5508 285.272 42.5626 284.154 43.5902C283.953 43.7878 283.727 43.9854 283.494 44.1909C280.485 46.9101 277.517 49.8981 274.572 53.1548C272.432 55.5182 270.534 57.945 268.885 60.4349C268.346 61.2412 269.343 62.1818 270.164 61.6522C271.379 60.8618 272.545 59.9527 273.655 58.933L274.975 57.8343C278.321 55.21 281.491 52.2615 284.5 48.9732C286.865 46.4121 288.836 43.6534 290.412 40.6971L290.421 40.6892ZM288.554 70.6951C288.997 70.8848 289.528 70.7346 289.737 70.2999C290.879 67.9601 292.77 65.9444 295.4 64.2449C298.337 62.3874 301.345 61.4546 304.418 61.4546C306.108 61.4546 307.693 61.8182 309.181 62.5533C310.637 63.2806 311.836 64.4821 312.777 66.142C313.549 67.6044 313.943 69.1458 313.943 70.7742C313.943 73.0981 313.388 75.4379 312.27 77.7935C311.586 79.24 310.862 80.5601 310.106 81.7616C309.655 82.473 310.38 83.3583 311.176 83.0658C313.67 82.141 315.995 80.8842 318.151 79.2953C318.625 78.9633 319.092 78.5997 319.567 78.1966C320.918 76.9319 322.406 76.0861 324.023 75.6592C324.289 75.6276 324.546 75.6118 324.78 75.6118C325.962 75.6118 326.871 75.9912 327.515 76.7579C328.126 77.5563 328.424 78.4653 328.424 79.493C328.424 80.6865 327.965 81.8011 327.056 82.8287C324.691 85.1527 321.908 87.113 318.698 88.7018C315.504 90.3223 312.294 91.4605 309.06 92.1324C309.028 92.1324 309.004 92.1403 308.972 92.1482C307.87 92.3142 306.687 92.3933 305.416 92.3933H305.014C303.453 92.3933 302.045 92.5672 300.782 92.9229C300.734 92.9387 300.686 92.9545 300.637 92.9703C299.583 93.4051 298.538 94.0533 297.516 94.9307C296.776 95.563 296.012 96.0927 295.239 96.5274C293.751 97.3258 292.166 97.974 290.477 98.4719C288.787 98.9699 287.098 99.2229 285.409 99.2229C284.025 99.2229 282.673 99.0095 281.354 98.5747C280.003 98.1795 278.756 97.4918 277.605 96.5353C276.318 95.4366 275.409 94.1955 274.87 92.8043C274.299 91.4447 274.009 90.014 274.009 88.52C274.009 86.1644 274.532 83.8089 275.578 81.4533C276.592 79.1293 277.79 77.0899 279.174 75.3272C280.083 74.102 281.185 72.9558 282.464 71.8887C283.743 70.8295 285.135 70.292 286.623 70.292C287.243 70.292 287.878 70.4343 288.538 70.7188L288.554 70.6951ZM286.744 78.9396V78.4891C285.457 79.4218 284.427 80.7261 283.655 82.4256C282.875 84.1171 282.488 85.7297 282.488 87.2553V88.0062C282.488 88.5042 282.553 88.9864 282.69 89.4528C282.794 89.9508 283.06 90.3697 283.502 90.6938C284.113 91.0574 284.781 91.2392 285.529 91.2392C286.277 91.2392 287.114 91.089 287.959 90.7887C288.804 90.5199 289.584 90.2432 290.292 89.9429L291 89.6425C289.648 87.8165 288.602 86.1407 287.854 84.6151C287.114 83.1212 286.736 81.232 286.736 78.9396H286.744ZM302.954 69.7782C300.863 70.1734 299.117 71.2563 297.733 73.0112C296.317 74.8055 295.4 76.6947 294.998 78.6867C294.934 78.9554 294.893 79.2716 294.893 79.6352C294.893 80.4968 295.078 81.4296 295.448 82.4256C295.819 83.4215 296.462 83.9195 297.371 83.9195C297.54 83.9195 297.709 83.9037 297.878 83.8721C298.691 83.5401 299.382 82.8919 299.954 81.9276C300.09 81.7616 300.211 81.6114 300.307 81.477C302.367 78.9238 303.992 76.1335 305.175 73.1139C305.408 72.4499 305.529 71.8729 305.529 71.367C305.529 70.8374 305.392 70.4184 305.126 70.126C304.821 69.8572 304.346 69.7307 303.71 69.7307C303.477 69.7307 303.22 69.7466 302.954 69.7782Z" fill="#FAF9E7" stroke="#FAF9E7" stroke-width="2" mask="url(#path-2-inside-1_250_87)"/>
<path d="M7.6485 45.7947C8.03861 45.7109 8.34339 45.7643 8.59869 45.9168L8.62897 45.9373C8.80854 46.055 8.93521 46.1837 9.0235 46.3299L9.09967 46.4822C9.15382 46.6257 9.19073 46.76 9.2149 46.8865C8.8378 47.0603 8.46322 47.2724 8.08795 47.5203L8.08502 47.5223C7.56197 47.8739 7.09278 48.3672 6.67194 48.9832L6.67096 48.9852C6.14599 49.759 5.85056 50.5661 5.81354 51.4012C5.77664 52.235 5.99048 53.0304 6.45905 53.783C6.86773 54.4394 7.4518 55.024 8.19635 55.5545L8.52545 55.7791C9.90153 56.675 11.2447 57.0585 12.5284 56.824L12.5294 56.825C13.8085 56.599 14.858 55.8294 15.6729 54.6199L15.6739 54.619C16.083 54.0075 16.3731 53.3952 16.503 52.7938C16.5915 52.384 16.662 51.9757 16.7022 51.575C16.8303 51.5562 16.9625 51.5518 17.0997 51.5652H17.1006C17.344 51.5886 17.5813 51.6696 17.8321 51.8338L17.838 51.8377C18.0318 51.961 18.1764 52.1255 18.2725 52.3309C18.3563 52.5101 18.3987 52.769 18.3438 53.1463L18.3399 53.1717C18.3133 53.4587 18.2169 53.8565 18.0225 54.3914L18.0206 54.3973C17.8459 54.8977 17.547 55.4673 17.1114 56.117C16.3524 57.2469 15.448 58.1169 14.3926 58.7391L14.3907 58.741C13.3522 59.3605 12.2112 59.6387 10.962 59.5799C9.73086 59.5219 8.39186 59.0496 6.93951 58.1033L6.93854 58.1024C5.5694 57.213 4.62644 56.215 4.07233 55.119C3.50938 54.0053 3.28894 52.8675 3.40729 51.7039V51.7029C3.5272 50.5177 3.93885 49.3945 4.66803 48.3123V48.3113C5.17799 47.5521 5.70093 46.9683 6.22369 46.5486C6.75538 46.1219 7.23274 45.8841 7.6485 45.7947Z" fill="#FAF9E7" stroke="#FAF9E7"/>
<path d="M14.5797 36.0369C14.9939 35.7914 15.3129 35.7684 15.5807 35.864L15.5895 35.8669C16.4502 36.1567 17.4416 36.5179 18.5582 36.9363C19.6732 37.354 20.8376 37.8035 22.0426 38.2771C23.2482 38.751 24.422 39.2172 25.5563 39.6677C26.5617 40.0671 27.4719 40.4429 28.2887 40.782C28.2772 40.9028 28.2512 41.0475 28.2037 41.2234C28.1227 41.4888 27.9543 41.7914 27.6901 42.1072L27.6862 42.1121C27.2899 42.5988 26.9939 42.7723 26.8073 42.8044L26.8053 42.8054C26.5629 42.8478 26.2328 42.8111 25.8131 42.6433H25.8121L24.442 42.0769L24.776 41.6697L25.1559 41.2048L24.6305 40.9148L22.0641 39.5007L21.6998 39.2996L21.4362 39.6218L20.8092 40.3865C20.2711 40.1576 19.7449 39.9425 19.2291 39.741C18.5634 39.4809 17.9299 39.2284 17.3444 38.9919H17.3424C16.7531 38.7572 16.2219 38.5407 15.7535 38.3582L15.3317 38.1931L15.1461 38.5564L15.0905 38.6218L14.8375 38.9119L15.0533 39.2312C15.3556 39.6767 15.683 40.1785 16.0446 40.739C16.4067 41.3005 16.785 41.886 17.1793 42.4949L17.1823 42.4988C17.4663 42.9286 17.7498 43.3518 18.0367 43.7722L17.8317 44.0242L17.6324 44.2673L17.7653 44.5525L19.1168 47.4529L19.5319 47.2585L19.9127 47.6062L19.9205 47.5984L20.1725 47.3513L20.1549 47.3142L20.4928 46.9021C20.6869 47.1651 20.8704 47.4083 21.0426 47.655C21.237 47.9336 21.4235 48.1967 21.6022 48.4441C21.7173 48.6035 21.8271 48.7598 21.9323 48.9089C21.8894 49.0029 21.8444 49.1051 21.7936 49.2175C21.7232 49.3732 21.6017 49.5553 21.4205 49.7781C21.0186 50.2681 20.6694 50.5108 20.3912 50.5974C20.1468 50.6713 19.9194 50.6333 19.6627 50.4304L19.6598 50.4275L19.5748 50.3572C19.4903 50.2809 19.4072 50.1887 19.3287 50.0828C19.1991 49.9077 19.0522 49.7104 18.8981 49.4832L18.8922 49.4734L18.8854 49.4646L18.6315 49.115C18.3651 48.7387 18.0578 48.2818 17.7008 47.7468L16.1735 45.4246C15.6288 44.5902 15.1015 43.7651 14.5905 42.9333C14.0752 42.0948 13.5997 41.3267 13.1656 40.6238C12.787 40.0105 12.4899 39.5068 12.2672 39.1189C12.3119 38.9312 12.4049 38.6717 12.5651 38.3337C12.7652 37.9114 13.0091 37.5279 13.2877 37.1892C13.6979 36.6909 14.129 36.3119 14.5797 36.0369ZM19.859 46.0164C19.8688 46.0311 19.8793 46.0455 19.8893 46.0603L19.6862 46.3083L19.1783 45.2175L19.859 46.0164ZM22.7623 42.4626L22.7799 42.4714L22.7985 42.4792L22.8151 42.4861L20.5367 45.2693L19.2965 43.8132L21.0973 41.613L22.7623 42.4626ZM23.6217 41.5007L23.4772 41.6775L23.1989 41.5632L21.7448 40.821L21.9459 40.5759L23.6217 41.5007Z" fill="#FAF9E7" stroke="#FAF9E7"/>
<path d="M26.4674 31.3766C26.9706 31.8319 27.4479 32.278 27.8922 32.7145C28.3429 33.1574 28.7833 33.5905 29.2076 34.0153L29.2086 34.0163L32.235 37.0319C32.1914 37.0886 32.1432 37.1534 32.0875 37.2263C31.899 37.456 31.695 37.6791 31.4752 37.8952C30.9781 38.3761 30.6464 38.5258 30.4557 38.5378C30.2905 38.5481 30.0139 38.4631 29.6022 38.0515L29.6012 38.0505L24.3444 32.8141L25.7164 30.7126C25.9708 30.9329 26.2212 31.154 26.4674 31.3766ZM22.818 26.8962C23.1509 26.752 23.5759 26.7327 24.15 26.9138L24.152 26.9147L30.274 28.819C30.6467 28.9384 31.015 29.0549 31.3922 29.1862C31.7767 29.32 32.149 29.4522 32.5114 29.5915C32.8756 29.7315 33.2406 29.8791 33.6051 30.0349L33.8746 30.1501C33.8785 30.1533 33.8824 30.1566 33.8864 30.1599L34.234 30.444L34.5543 30.1296L36.6129 28.1061L38.7965 30.28C38.7614 30.4336 38.6962 30.6137 38.5826 30.8229L38.5787 30.8307C38.4259 31.1245 38.1833 31.4379 37.8317 31.7761L37.8278 31.78C37.476 32.1256 37.0917 32.3829 36.6754 32.5632C36.3452 32.706 35.9164 32.7258 35.3414 32.5261L35.3336 32.5231L35.3268 32.5212L29.2369 30.6159C28.8655 30.4916 28.4865 30.36 28.1237 30.2282L28.1207 30.2263L27.5631 30.0251C27.3791 29.9571 27.196 29.8875 27.0114 29.8141L27.0026 29.8112L25.8766 29.3718L25.5104 29.2253L25.2037 28.9694L24.8805 29.2927L22.8492 31.321L20.7848 29.2634C20.7852 29.0925 20.8332 28.8864 20.9586 28.6286C21.1244 28.2961 21.363 27.9705 21.6783 27.6677V27.6667C22.0257 27.3325 22.4034 27.0757 22.818 26.8962ZM23.6227 32.0905L23.5582 32.027L23.8639 31.7204L23.6227 32.0905ZM28.9977 20.8972C29.177 20.8863 29.4632 20.9786 29.8522 21.3679V21.3688L35.1373 26.6403L33.7526 28.7409C33.3499 28.3956 32.9633 28.0531 32.5934 27.7116L32.0084 27.1599C31.6226 26.7847 31.2472 26.4205 30.8824 26.0641L29.818 25.0153L27.2164 22.4235C27.2659 22.3554 27.3186 22.2803 27.3785 22.2009C27.5462 21.9788 27.7451 21.7523 27.9781 21.5231L27.9791 21.5241C28.4547 21.0644 28.7953 20.9096 28.9977 20.8972ZM35.901 27.402L35.7067 27.5934L35.86 27.361L35.901 27.402Z" fill="#FAF9E7" stroke="#FAF9E7"/>
<path d="M46.7159 24.5435C46.6564 24.6043 46.5906 24.6737 46.5137 24.7466C46.3009 24.9485 46.0531 25.148 45.7881 25.3472C45.2355 25.7563 44.8565 25.8701 44.6299 25.8579C44.435 25.84 44.1579 25.7013 43.8038 25.2398H43.8028L38.168 17.8228H38.4171L38.1055 17.4204L40.1563 15.9165L46.7159 24.5435ZM36.3419 16.7769V17.4702L35.8614 17.8228H35.8672L34.0362 19.1656C33.971 19.1297 33.8968 19.0831 33.8155 19.021C33.6819 18.9189 33.5568 18.7998 33.4376 18.6626L33.3204 18.5191C33.0672 18.182 32.9975 17.9553 32.9971 17.814L33.001 17.7583L33.003 17.7466C33.0233 17.5794 33.114 17.4098 33.3399 17.2447L33.3409 17.2437L35.4844 15.6704L36.3419 16.7769ZM39.084 14.647L37.0899 16.1099L36.2911 15.0777L38.2842 13.6148L39.084 14.647ZM41.7266 11.0865C41.7955 11.1263 41.8757 11.1774 41.9688 11.2427C42.0995 11.3344 42.2211 11.4468 42.3389 11.5816L42.4561 11.7242C42.7279 12.0811 42.7844 12.331 42.7657 12.4898C42.7446 12.6677 42.6506 12.8443 42.419 13.0152L40.3565 14.5269L40.2569 14.396L39.96 14.0044L39.8897 14.0552L39.0909 13.023L39.9131 12.4204H39.9092L41.7266 11.0865Z" fill="#FAF9E7" stroke="#FAF9E7"/>
<path d="M53.4799 16.4669V16.4503L55.1323 19.3185C55.0718 19.3658 55.005 19.4213 54.9262 19.4777C54.6743 19.6577 54.4089 19.829 54.1303 19.9845C53.5106 20.327 53.1299 20.3933 52.9174 20.3507C52.7283 20.3128 52.4654 20.1418 52.1752 19.6359L52.1743 19.6349L50.4174 16.587L52.7885 15.2657L53.4799 16.4669ZM52.2895 14.3995L49.9184 15.7198L48.0912 12.549L50.4643 11.2267L52.2895 14.3995ZM48.018 7.53333C48.1849 7.56026 48.4435 7.71718 48.7573 8.25989V8.26086L49.9653 10.3605L47.5893 11.6827L45.8071 8.58997C45.8788 8.53469 45.9584 8.47324 46.0483 8.40833L46.0551 8.40442L46.062 8.39856C46.3053 8.21019 46.5662 8.04151 46.8295 7.89368L46.8286 7.8927C47.409 7.57033 47.7927 7.49719 48.018 7.53333Z" fill="#FAF9E7" stroke="#FAF9E7"/>
<path d="M58.3452 8.92532C58.5835 9.54981 58.7991 10.1598 58.9985 10.7554C59.1998 11.3569 59.3908 11.9288 59.5659 12.4917L59.5678 12.4966L60.8686 16.5337C60.798 16.5679 60.7207 16.607 60.6342 16.646L60.6293 16.648C60.366 16.7701 60.0829 16.8735 59.7856 16.9634H59.7836C59.1205 17.168 58.7504 17.1545 58.5717 17.0826C58.4207 17.0141 58.214 16.8077 58.0405 16.2749L55.7885 9.28079L57.9897 8.01712C58.1119 8.32083 58.2302 8.62417 58.3452 8.92532ZM57.1967 3.3179C57.5522 3.3343 57.941 3.50808 58.3657 3.92532L58.3676 3.92825L62.937 8.36185C63.2053 8.62552 63.4825 8.90443 63.7621 9.18704V9.18802L64.5766 10.0523C64.8371 10.3394 65.0871 10.6233 65.3354 10.9283L65.52 11.1548L65.5209 11.1568L65.6996 11.5738L66.1323 11.4361L68.9086 10.5513L69.8432 13.4566C69.7408 13.5774 69.5998 13.709 69.4037 13.8452C69.197 13.989 68.9379 14.121 68.6235 14.2408L68.2924 14.356C67.8126 14.5059 67.3507 14.567 66.9037 14.5396C66.5445 14.5174 66.1539 14.3418 65.7221 13.9107L65.7182 13.9058L61.1801 9.48685C60.9039 9.20759 60.6354 8.92767 60.3637 8.64505C60.0973 8.36792 59.838 8.08272 59.5649 7.78275C59.4308 7.63106 59.295 7.47944 59.1606 7.32962C59.0258 7.17935 58.8923 7.03076 58.7612 6.88235L58.4907 6.57669L58.477 6.58353L58.3198 6.21634L57.8852 6.35794L55.1586 7.24857L54.2846 4.52493C54.3664 4.36789 54.5063 4.20165 54.7328 4.0347C55.0381 3.80977 55.3962 3.62915 55.8188 3.50247L55.8217 3.5015C56.2867 3.35873 56.7443 3.29706 57.1967 3.3179ZM64.268 0.838409C64.835 0.66602 65.1845 0.653402 65.394 0.70755L65.475 0.734894C65.6351 0.804559 65.8396 1.00548 66.0121 1.52786L68.1957 8.3179H68.1909L68.2768 8.58743L66.058 9.84622C65.7521 9.09377 65.4769 8.36602 65.2397 7.65579C64.9018 6.6439 64.5805 5.68155 64.2836 4.76712H64.2846L63.1674 1.29739L63.4203 1.17435L63.4301 1.16946C63.6809 1.04271 63.9594 0.934685 64.268 0.838409ZM68.602 9.59915L68.4135 9.65872L68.5893 9.55911L68.602 9.59915ZM55.4955 8.29739L55.4643 8.20071L55.9262 8.04935L55.4955 8.29739Z" fill="#FAF9E7" stroke="#FAF9E7"/>
<path d="M79.3248 0.510773C79.7986 0.481675 80.2573 0.510106 80.7007 0.589874V0.590851C81.3459 0.708793 81.891 0.904459 82.3375 1.16898L82.3404 1.17093C82.7086 1.38572 82.8778 1.61407 82.939 1.8428L82.9586 1.94046L82.9595 1.94925C83.1034 2.8369 83.2556 3.86749 83.4078 5.02444V5.02542C83.5604 6.19367 83.713 7.40682 83.8492 8.67386C83.9859 9.94595 84.1226 11.1787 84.2593 12.3721V12.3731C84.3737 13.4333 84.4732 14.3981 84.5562 15.2627C84.4396 15.3134 84.2984 15.36 84.1236 15.3936H84.1216C83.9073 15.4357 83.654 15.4455 83.3609 15.417L83.0543 15.376C82.4282 15.2628 82.1387 15.0858 82.0318 14.9473L82.0279 14.9414L81.9722 14.8653C81.848 14.6757 81.7489 14.3998 81.7056 14.0108L81.567 12.545L82.1168 12.6455L82.6968 12.751L82.7066 12.1621L82.7545 9.26859L82.7623 8.84476L82.3453 8.76859L81.3716 8.58987C81.3228 8.0235 81.2682 7.47353 81.2066 6.9346C81.1256 6.22655 81.046 5.56894 80.982 4.94827C80.9179 4.32658 80.8609 3.76512 80.7955 3.26663L80.773 3.09573L80.65 2.97562L80.6422 2.9678L80.5289 2.85648L80.3726 2.83109L80.2281 2.80667L79.8775 2.74905L79.7076 3.06155C79.4526 3.53133 79.1566 4.05742 78.8277 4.63284C78.4975 5.21056 78.1514 5.82099 77.7964 6.45511C77.5455 6.90344 77.2991 7.35125 77.0572 7.80081L76.689 7.73343L76.3892 7.67776L76.2027 7.91995L74.2476 10.4659L74.5943 10.7315L74.5464 11.2617L75.4039 11.418C75.2673 11.699 75.1327 11.9704 74.9918 12.2334C74.8278 12.5395 74.6798 12.831 74.5474 13.1075C74.4578 13.2836 74.3707 13.4506 74.2867 13.6133C74.1822 13.6203 74.0714 13.626 73.9527 13.6299H73.9439L73.9351 13.6309C73.75 13.6434 73.5217 13.6319 73.2574 13.5772L73.2486 13.5752L73.023 13.5274C72.5254 13.4099 72.2095 13.2448 72.022 13.0655C71.8497 12.9005 71.7774 12.7025 71.8355 12.3838C71.8599 12.2686 71.8948 12.1523 71.942 12.0401L71.9927 11.9297L71.9966 11.9229L72.3306 11.2578L72.3355 11.2491C72.5703 10.7645 72.894 10.158 73.3101 9.41898C73.73 8.67311 74.1784 7.87022 74.6695 7.00003C75.1575 6.13534 75.6541 5.28557 76.1519 4.44144C76.6507 3.60355 77.1164 2.82262 77.5416 2.12112L77.5435 2.11917C77.9179 1.49458 78.228 0.99631 78.4683 0.62796C78.652 0.577747 78.9308 0.53498 79.3248 0.510773ZM81.7466 9.67484L81.7154 11.5557L81.4683 11.5108L81.4429 11.2422L81.4244 9.61624L81.7466 9.67484ZM80.4224 9.43265L80.4439 11.2657V11.2871L80.4459 11.3076L80.4468 11.3233L76.8863 10.6729L77.608 8.91702L80.4224 9.43265ZM75.9068 10.4268C75.8959 10.4471 75.8855 10.4678 75.8746 10.4883L75.5386 10.4268L76.3306 9.39456L75.9068 10.4268Z" fill="#FAF9E7" stroke="#FAF9E7"/>
</svg>
