<?xml version="1.0" encoding="utf-8"?>
<!-- Generator: Adobe Illustrator 23.0.1, SVG Export Plug-In . SVG Version: 6.00 Build 0)  -->
<svg version="1.1" id="Capa_1" xmlns="http://www.w3.org/2000/svg" xmlns:xlink="http://www.w3.org/1999/xlink" x="0px" y="0px"
	 viewBox="0 0 63 50" style="enable-background:new 0 0 63 50;" xml:space="preserve">
<style type="text/css">
	.st0{fill:#161715;}
</style>
<path class="st0" d="M33.5,0.1C33.7,0,34,0,34.3,0c1.1,0,2.1,0.3,2.8,0.8c0.7,0.5,1.3,1.2,1.7,2.1c0.4,0.9,0.5,1.8,0.5,2.7
	c0,1.1-0.3,2.2-0.8,3.3c-0.1,0.1-0.1,0.2-0.2,0.3c-0.3,0.6-0.6,1.2-1.1,1.8c-0.4,0.6-1,0.9-1.7,1.1c-0.1,0-0.2,0-0.3,0
	c-0.6,0-1.1-0.2-1.5-0.7c-0.4-0.5-0.5-1-0.5-1.5c0-0.2,0-0.3,0.1-0.5C33.5,9.1,33.7,8.6,34,8c0.2-0.4,0.4-0.8,0.5-1.2
	c0.2-0.4,0.2-0.8,0.2-1.1c0-0.2-0.1-0.4-0.2-0.6C34.3,5,34,5,33.6,5h-0.2c-0.4,0-0.7,0.1-1.1,0.1c-1.8,0.4-3.5,1.1-5,2.1
	c-1.6,1-3.1,2.1-4.4,3.3c-6.4,5.4-11.5,11.8-15.2,19.3c-0.7,1.3-1.3,2.7-1.9,4.3c-0.6,1.6-0.9,3.2-0.9,4.8c0,1.4,0.3,2.7,1,3.9
	c0.6,0.9,1.3,1.5,2.3,1.8c1,0.4,2,0.5,3,0.5c0.5,0,1,0,1.4-0.1c2.6-0.4,5.1-1.4,7.3-2.9c2.3-1.5,4.4-3.1,6.3-4.9
	c0.1-0.1,0.2-0.2,0.3-0.3c0.5-0.5,1.2-1.1,2-1.7c0.8-0.6,1.5-0.9,2.3-0.9c0.4,0,0.7,0.1,1,0.4c0.3,0.2,0.6,0.7,0.8,1.2
	c0.1,0.3,0.1,0.6,0.1,0.8c0,0.8-0.3,1.5-0.9,2.1c-0.6,0.6-1.2,1.2-1.9,1.7c-0.3,0.2-0.5,0.4-0.7,0.6c-2.1,1.9-4.3,3.6-6.7,5.2
	c-2.4,1.6-5,2.7-7.7,3.4c-1.2,0.3-2.4,0.4-3.6,0.4c-0.4,0-0.9,0-1.3-0.1c-1.5-0.1-2.9-0.5-4.3-1c-1.4-0.6-2.6-1.4-3.4-2.5
	c-0.8-1-1.5-2.1-1.8-3.4C0.2,41.7,0,40.4,0,39c0-2.5,0.4-4.9,1.3-7.3c1.5-4.3,3.7-8.3,6.5-12.1c2.8-3.8,5.8-7.3,9-10.4
	c2.3-2.3,4.9-4.3,7.6-6C27.2,1.5,30.2,0.5,33.5,0.1L33.5,0.1z M42.3,37.4c-1.2,0.2-2.4,0.6-3.5,1.4c-0.1,0.1-0.3,0.1-0.4,0.2
	c-2.9,1.6-5.5,3.6-7.9,6l-0.3,0.3c-0.4,0.5-0.9,0.9-1.4,1.3c-0.5,0.4-1,0.6-1.6,0.6c-0.5,0-1.1-0.3-1.6-0.8c-0.4-0.5-0.6-1-0.6-1.6
	c0-0.4,0.1-0.8,0.2-1.2l0.5-1.2c0,0,0,0,0-0.1c1.4-3.3,3-6.4,5-9.3c3.8-6.2,8.2-12.1,13-17.5c1.3-1.4,2.7-2.8,4.2-4.2
	c1.5-1.3,3.2-2.4,5-3.2c0.5-0.2,1-0.3,1.5-0.5c0.5-0.1,1-0.2,1.5-0.2c0.3,0,0.7,0,1,0.1C57.9,7.9,58.6,8.3,59,9
	c0.4,0.7,0.6,1.5,0.6,2.3c0,0.6-0.1,1.2-0.3,1.7c-0.9,2.4-2.2,4.6-4,6.6c-1.8,2-3.7,3.9-5.6,5.5c-2.3,2.1-4.8,3.9-7.5,5.4L41.6,31
	c-0.8,0.4-1.6,0.8-2.4,1c-0.2,0.1-0.5,0.2-0.8,0.2c-0.6,0.1-1.2,0.3-1.6,0.6c-0.5,0.5-1,1.2-1.3,2l-0.1,0.3c1.1-0.7,2.3-1.3,3.6-1.9
	c1.3-0.6,2.6-0.9,4-0.9c0.2,0,0.3,0,0.5,0c1,0.1,1.9,0.4,2.7,1c0.8,0.6,1.2,1.4,1.4,2.5c0,0.2,0,0.4,0,0.6c0,0.7-0.1,1.4-0.3,2
	c-0.2,0.7-0.5,1.3-0.8,2L46.2,41c0,0.1-0.1,0.1-0.1,0.2c-0.3,0.4-0.4,0.7-0.4,1c0,0.2,0.1,0.3,0.2,0.4c0.2,0.1,0.4,0.2,0.6,0.2
	c0.5,0,1.1-0.1,1.6-0.4c0.6-0.3,1.1-0.5,1.5-0.8l0.3-0.2c2.8-1.7,5.2-3.7,7.3-6.2c0.2-0.2,0.3-0.4,0.5-0.6c0.4-0.5,0.8-0.9,1.2-1.3
	c0.4-0.4,0.9-0.6,1.5-0.6c0.2,0,0.4,0,0.6,0.1c0.5,0.1,1,0.4,1.3,0.9c0.3,0.4,0.4,0.9,0.4,1.5c0,0.2,0,0.5-0.1,0.7
	c-0.2,0.7-0.6,1.3-1.1,1.9c-0.5,0.6-1,1.2-1.6,1.7l-0.5,0.5c-1.7,1.7-3.6,3.3-5.7,4.7c-2.1,1.4-4.4,2.4-6.8,2.8
	c-0.3,0-0.6,0.1-0.9,0.1c-1.5,0-2.8-0.5-3.9-1.6c-1.1-1-1.6-2.3-1.6-3.9c0-0.2,0-0.4,0-0.6c0.2-1,0.5-1.9,1-2.8
	C41.9,38.4,42.1,37.9,42.3,37.4L42.3,37.4z M53.6,13.4c-1.5,0.7-2.9,1.8-4.2,3.1c-1.3,1.3-2.5,2.7-3.6,4c-0.2,0.2-0.3,0.4-0.5,0.6
	c-0.2,0.3-0.5,0.5-0.7,0.8c-0.8,0.9-1.6,1.9-2.2,2.9c2.9-1.9,5.5-4.2,7.8-6.9l0.2-0.2c0.6-0.6,1.2-1.3,1.8-2.1
	C52.8,14.9,53.3,14.1,53.6,13.4L53.6,13.4z"/>
</svg>
