<svg width="93" height="74" viewBox="0 0 93 74" fill="none" xmlns="http://www.w3.org/2000/svg">
<path d="M49.5063 0.0955962C49.9271 0.0389455 50.3266 0.0106201 50.7188 0.0106201C52.3664 0.0106201 53.7573 0.400094 54.8985 1.17196C56.004 1.97215 56.8456 2.99895 57.4162 4.25234C57.9583 5.53407 58.2222 6.8866 58.2222 8.30995C58.2222 9.97407 57.8442 11.624 57.1024 13.2598C57.0097 13.4085 56.9241 13.5714 56.8313 13.7484C56.4105 14.669 55.8899 15.5471 55.2622 16.3827C54.6346 17.2466 53.7929 17.7635 52.7445 17.9406C52.5661 17.9689 52.4021 17.9831 52.2523 17.9831C51.3536 17.9831 50.6333 17.629 50.0983 16.9138C49.5563 16.2269 49.2924 15.4692 49.2924 14.6407C49.2924 14.3999 49.3209 14.1804 49.3851 13.9679C49.5063 13.4298 49.7916 12.75 50.241 11.9144C50.512 11.3478 50.7616 10.7672 51.0041 10.1723C51.2466 9.57751 51.3608 9.05349 51.3608 8.60737C51.3608 8.2533 51.2395 7.95588 51.0041 7.71512C50.7616 7.47435 50.3337 7.36105 49.6989 7.36105H49.3423C48.8002 7.4177 48.2653 7.4956 47.7232 7.58057C45.0842 8.1754 42.6021 9.21636 40.2627 10.7034C37.8947 12.1905 35.7122 13.798 33.7008 15.5188C24.2361 23.5207 16.7327 33.0451 11.1908 44.1132C10.1994 45.9898 9.27218 48.1 8.40202 50.4439C7.50334 52.8233 7.05399 55.1743 7.05399 57.4899C7.05399 59.5434 7.5604 61.4412 8.58034 63.1974C9.42196 64.4791 10.5703 65.3856 12.0396 65.9166C13.5089 66.4548 14.9924 66.7168 16.4902 66.7168C17.2106 66.7168 17.9096 66.6744 18.6014 66.5823C22.4672 65.9591 26.0905 64.5145 29.4713 62.2556C32.8235 60.025 35.9119 57.6032 38.7292 54.9831C38.8504 54.8627 39.0002 54.7281 39.1785 54.5794C39.9845 53.7792 40.9902 52.9153 42.1884 51.9947C43.3582 51.1025 44.4779 50.6564 45.5549 50.6564C46.097 50.6564 46.6034 50.8334 47.0813 51.1945C47.5306 51.5486 47.9229 52.1576 48.251 53.0215C48.4008 53.4393 48.4721 53.843 48.4721 54.2254C48.4721 55.3584 48.037 56.3781 47.1669 57.3057C46.2967 58.2263 45.3838 59.0619 44.428 59.8055C44.0357 60.1029 43.6934 60.3861 43.3938 60.6552C40.3055 63.4523 36.996 66.0087 33.4654 68.3243C29.9278 70.647 26.1119 72.3253 22.0107 73.3662C20.2704 73.784 18.523 73.9894 16.7541 73.9894C16.0979 73.9894 15.4489 73.9611 14.8212 73.8973C12.6316 73.692 10.5346 73.1821 8.53041 72.3819C6.40494 71.4613 4.72881 70.2433 3.50203 68.7209C2.24672 67.2338 1.34803 65.5413 0.805967 63.6365C0.263901 61.7316 0 59.7559 0 57.7023C0 54.0129 0.64192 50.4298 1.93289 46.9528C4.20814 40.6221 7.39635 34.6242 11.5046 28.9804C15.5773 23.3295 20.0422 18.1884 24.8922 13.5501C28.3372 10.1299 32.096 7.18402 36.1686 4.71971C40.2127 2.28373 44.6563 0.732917 49.5135 0.0814335L49.5063 0.0955962ZM62.63 55.2734C60.8041 55.5425 59.0781 56.2223 57.4661 57.327C57.2878 57.419 57.0881 57.5182 56.8813 57.6386C52.5947 60.0462 48.7075 63.0062 45.1983 66.5115L44.749 66.9576C44.0928 67.6445 43.3867 68.296 42.6378 68.9191C41.8889 69.5423 41.0972 69.8539 40.2555 69.8539C39.4781 69.8539 38.6864 69.4361 37.8733 68.6076C37.2742 67.8923 36.9746 67.1205 36.9746 66.2849C36.9746 65.69 37.0816 65.0811 37.2884 64.4579L37.9589 62.7159C37.9589 62.7159 37.9732 62.6451 38.0017 62.5813C40.0344 57.766 42.4951 53.1844 45.3695 48.8435C51.0327 39.6236 57.4376 30.9986 64.5986 22.9754C66.4887 20.8368 68.5642 18.7833 70.8466 16.8217C73.1219 14.8602 75.5968 13.2952 78.2572 12.141C78.9776 11.8719 79.7122 11.6382 80.4612 11.4257C81.2101 11.2204 81.959 11.1142 82.7079 11.1142C83.2143 11.1142 83.7135 11.1708 84.1914 11.2912C85.5965 11.6453 86.6307 12.3463 87.294 13.3873C87.9217 14.4282 88.2355 15.5754 88.2355 16.8217C88.2355 17.6856 88.0857 18.5496 87.7862 19.4064C86.4667 22.9471 84.4767 26.2187 81.8092 29.2211C79.1416 32.2236 76.4028 34.957 73.5855 37.4284C70.2332 40.5513 66.5172 43.2139 62.4446 45.4091L61.5459 45.8552C60.3762 46.4784 59.1779 46.9882 57.9511 47.3706C57.6231 47.491 57.245 47.5972 56.8313 47.6822C55.9041 47.8592 55.091 48.1567 54.4063 48.5745C53.6003 49.3463 52.937 50.3165 52.4306 51.4707L52.2095 51.8744C53.8571 50.8334 55.6545 49.8845 57.6017 49.0206C59.5203 48.1567 61.4817 47.7247 63.4859 47.7247C63.7284 47.7247 63.9781 47.7389 64.2491 47.7672C65.7754 47.8592 67.1235 48.3478 68.2932 49.2401C69.4344 50.1323 70.1048 51.3645 70.3117 52.9436C70.3402 53.2411 70.3545 53.5526 70.3545 53.8784C70.3545 54.9477 70.1904 55.9603 69.8623 56.9092C69.5057 57.8864 69.0992 58.8566 68.6498 59.8055L68.2932 60.6056C68.2647 60.6977 68.2005 60.811 68.1149 60.9597C67.7226 61.4979 67.53 62.0007 67.53 62.4751C67.53 62.7442 67.6513 62.9496 67.8866 63.0983C68.1862 63.247 68.5 63.3249 68.8281 63.3249C69.577 63.3249 70.383 63.1195 71.2532 62.7017C72.0948 62.3193 72.8437 61.944 73.4999 61.59L73.9492 61.3209C78.0219 58.8211 81.6166 55.7903 84.7335 52.2213C84.976 51.9523 85.2114 51.669 85.4539 51.3716C86.0245 50.6847 86.6379 50.0474 87.294 49.4525C87.9217 48.886 88.6849 48.6028 89.5835 48.6028C89.8546 48.6028 90.1542 48.6453 90.4822 48.7373C91.2882 48.9427 91.923 49.3746 92.3723 50.0332C92.7932 50.6847 93 51.4141 93 52.2213C93 52.5754 92.9572 52.9366 92.8645 53.2906C92.5649 54.2749 92.0371 55.2097 91.2953 56.1019C90.5464 56.9942 89.769 57.8156 88.9559 58.5521L88.1499 59.3523C85.6322 61.9369 82.8363 64.2738 79.7479 66.3557C76.6596 68.4659 73.293 69.8468 69.6412 70.5054C69.1919 70.562 68.7425 70.5974 68.2932 70.5974C66.0179 70.5974 64.0851 69.8256 62.4945 68.2747C60.904 66.731 60.1123 64.8261 60.1123 62.5672C60.1123 62.2698 60.1265 61.9723 60.1551 61.6749C60.3976 60.2162 60.8897 58.8353 61.6386 57.5253C61.9952 56.7817 62.3305 56.024 62.63 55.2522V55.2734ZM79.3414 19.7676C77.0946 20.8652 75.012 22.4018 73.0933 24.3633C71.1462 26.3532 69.3773 28.3501 67.7939 30.34C67.5514 30.6091 67.316 30.8923 67.0735 31.1898C66.7455 31.5792 66.3817 31.9758 65.9965 32.3936C64.7412 33.732 63.6785 35.1766 62.8083 36.7203C67.1235 33.8382 70.9679 30.4462 74.3558 26.5515L74.6268 26.1974C75.5255 25.2485 76.4099 24.2217 77.2801 23.117C78.1217 22.0478 78.8064 20.9289 79.3485 19.7746L79.3414 19.7676Z" fill="#161715"/>
</svg>
