<svg width="33" height="43" viewBox="0 0 33 43" fill="none" xmlns="http://www.w3.org/2000/svg">
<path d="M15.0987 1.56746C24.7816 0.625897 32.6287 9.34343 30.6953 18.8727C29.5256 24.6519 25.269 31.1616 21.7435 35.8369C20.6063 37.3629 19.0141 39.5545 17.6981 40.8532C17.1945 41.3564 16.8208 41.6486 16.041 41.4051C15.5861 41.259 13.9777 39.246 13.5553 38.7428C9.2662 33.5317 2.18272 23.272 2.00401 16.4376C1.8253 8.93759 7.64154 2.29798 15.0987 1.56746ZM15.7161 8.74278C6.32558 9.78174 7.54407 24.3921 17.6819 23.1908C26.5525 22.1519 25.3827 7.67135 15.7161 8.74278Z" stroke="black" stroke-width="3"/>
</svg>
