<svg width="31" height="31" viewBox="0 0 31 31" fill="none" xmlns="http://www.w3.org/2000/svg">
<path d="M1.06954 30.2778L2.88352 24.657C-2.79653 16.5973 0.210711 5.19516 9.30736 1.29906C21.7992 -4.05173 34.6495 8.04571 30.0424 20.8117C26.6632 30.1682 15.3058 33.9306 6.95026 28.4755L1.07222 30.2778H1.06954ZM10.8458 7.31569C7.71812 6.30757 6.25196 9.52179 6.53288 12.1718C6.88337 15.509 11.7073 20.5737 14.5486 22.1915C15.8864 22.9536 19.1264 24.2585 20.6166 24.2318C21.7965 24.2104 23.8299 23.2638 24.3837 22.1781C24.6994 21.5604 25.1114 19.988 24.4774 19.5281C23.9503 19.143 22.1524 18.3034 21.4915 18.036C21.1758 17.9076 20.7076 17.6616 20.3812 17.683C19.4367 17.7418 18.8909 20.0656 17.7458 19.9693C16.8522 19.8945 14.7413 18.4933 14.0216 17.8782C13.3447 17.3006 11.2605 15.017 11.1374 14.2174C11.0357 13.5543 12.7373 12.5274 12.6865 11.7172L10.8458 7.31836V7.31569Z" fill="#568A35"/>
</svg>
